<?xml version="1.0" encoding="UTF-8" standalone="no"?>
<!-- Created with Inkscape (http://www.inkscape.org/) -->

<svg
   width="654.42352"
   height="925.3985"
   viewBox="0 0 654.42352 925.39855"
   version="1.1"
   id="svg1"
   inkscape:version="1.3.2 (091e20e, 2023-11-25, custom)"
   sodipodi:docname="soul.svg"
   xmlns:inkscape="http://www.inkscape.org/namespaces/inkscape"
   xmlns:sodipodi="http://sodipodi.sourceforge.net/DTD/sodipodi-0.dtd"
   xmlns:xlink="http://www.w3.org/1999/xlink"
   xmlns="http://www.w3.org/2000/svg"
   xmlns:svg="http://www.w3.org/2000/svg">
  <sodipodi:namedview
     id="namedview1"
     pagecolor="#ffffff"
     bordercolor="#000000"
     borderopacity="0.25"
     inkscape:showpageshadow="2"
     inkscape:pageopacity="0.0"
     inkscape:pagecheckerboard="false"
     inkscape:deskcolor="#3d3d3d"
     inkscape:document-units="px"
     inkscape:zoom="0.3822796"
     inkscape:cx="431.62125"
     inkscape:cy="647.43187"
     inkscape:window-width="1366"
     inkscape:window-height="715"
     inkscape:window-x="1358"
     inkscape:window-y="-8"
     inkscape:window-maximized="1"
     inkscape:current-layer="layer1" />
  <defs
     id="defs1">
    <linearGradient
       id="linearGradient32"
       inkscape:collect="always">
      <stop
         style="stop-color:#000000;stop-opacity:0.70602411;"
         offset="0"
         id="stop31" />
      <stop
         style="stop-color:#498d9e;stop-opacity:0.68433738;"
         offset="1"
         id="stop32" />
    </linearGradient>
    <linearGradient
       id="linearGradient29"
       inkscape:collect="always">
      <stop
         style="stop-color:#000000;stop-opacity:1;"
         offset="0"
         id="stop29" />
      <stop
         style="stop-color:#000000;stop-opacity:0.57108432;"
         offset="1"
         id="stop30" />
    </linearGradient>
    <linearGradient
       id="linearGradient14"
       inkscape:collect="always">
      <stop
         style="stop-color:#000000;stop-opacity:0;"
         offset="0"
         id="stop15" />
      <stop
         style="stop-color:#498d9e;stop-opacity:0.42891565;"
         offset="1"
         id="stop14" />
    </linearGradient>
    <linearGradient
       id="linearGradient11"
       inkscape:collect="always">
      <stop
         style="stop-color:#33aca7;stop-opacity:0.87843138;"
         offset="0"
         id="stop12" />
      <stop
         style="stop-color:#7cd8c2;stop-opacity:0.87951809;"
         offset="0.5"
         id="stop13" />
      <stop
         style="stop-color:#4f4f4f;stop-opacity:0.886747;"
         offset="1"
         id="stop11" />
    </linearGradient>
    <linearGradient
       id="linearGradient9"
       inkscape:collect="always">
      <stop
         style="stop-color:#000000;stop-opacity:1;"
         offset="0"
         id="stop9" />
      <stop
         style="stop-color:#000000;stop-opacity:0;"
         offset="0.83950615"
         id="stop10" />
    </linearGradient>
    <clipPath
       clipPathUnits="userSpaceOnUse"
       id="clipPath7">
      <path
         id="path8"
         style="fill:#ff0000;fill-opacity:1;fill-rule:nonzero;stroke:none"
         d="m 379.25781,225.37891 v 733.24218 h 333.29102 c 0.7638,-1.19307 1.66749,-2.48177 2.8789,-3.98242 5.00089,-6.19481 11.36481,-11.06722 16.59961,-17.04297 4.57148,-4.86053 8.39361,-10.35931 12.32032,-15.73828 4.42123,-5.06238 6.68737,-11.28161 9.18945,-17.40625 4.9272,-10.46329 8.07765,-21.52822 10.5625,-32.77929 1.48932,-7.95531 2.81322,-15.94264 4.04101,-23.94532 -13.06791,-14.27358 -42.68794,46.65568 -38.42968,9.57813 1.62522,-14.15107 5.53298,-27.94265 9.79297,-41.49805 5.52415,-17.57802 16.41761,-25.01031 25.85742,-24.44726 3.42428,0.20424 6.65656,1.46225 9.37305,3.66796 0.12068,-1.17731 0.2703,-2.35152 0.38671,-3.52929 1.94188,-19.64597 12.27979,-29.16152 22.28711,-29.41016 11.34163,-0.28179 22.2586,11.33897 20.04883,33.60352 -1.05223,10.60177 -2.26688,21.1862 -3.49023,31.76953 -2.33871,17.88342 -4.93878,35.7539 -8.34375,53.46679 -3.04959,13.57762 -6.85296,26.96714 -12.71289,39.63868 -3.80839,9.28943 -7.75574,18.59096 -14.22266,26.40625 -2.86433,3.91028 -5.71867,7.84035 -8.72266,11.64843 H 863.6875 V 225.37891 Z" />
    </clipPath>
    <linearGradient
       inkscape:collect="always"
       xlink:href="#linearGradient9"
       id="linearGradient10"
       x1="604.92255"
       y1="815.815"
       x2="613.97656"
       y2="227.60693"
       gradientUnits="userSpaceOnUse" />
    <radialGradient
       inkscape:collect="always"
       xlink:href="#linearGradient11"
       id="radialGradient12"
       cx="566.03229"
       cy="682.04034"
       fx="566.03229"
       fy="682.04034"
       r="320.89749"
       gradientTransform="matrix(0.15266559,-1.5102152,1.4112435,0.14266068,-482.90639,1439.5706)"
       gradientUnits="userSpaceOnUse" />
    <radialGradient
       inkscape:collect="always"
       xlink:href="#linearGradient32"
       id="radialGradient15"
       cx="578.01239"
       cy="469.29956"
       fx="578.01239"
       fy="469.29956"
       r="35.895782"
       gradientTransform="matrix(1,0,0,2.3390053,0,-628.39457)"
       gradientUnits="userSpaceOnUse" />
    <radialGradient
       inkscape:collect="always"
       xlink:href="#linearGradient14"
       id="radialGradient16"
       gradientUnits="userSpaceOnUse"
       gradientTransform="matrix(1,0,0,2.3390053,0,-628.39457)"
       cx="578.01239"
       cy="469.29956"
       fx="578.01239"
       fy="469.29956"
       r="35.895782" />
    <clipPath
       clipPathUnits="userSpaceOnUse"
       id="clipPath19">
      <path
         id="path19"
         style="fill:#ff0000;fill-opacity:1;fill-rule:nonzero;stroke:none"
         d="m 530.69141,639.50195 v 64.25977 c 0.87175,-1.04674 1.56022,-2.2359 2.0957,-3.48438 1.07296,-2.04675 2.32682,-3.94572 3.86719,-5.67578 1.54713,-1.73764 2.6328,-2.39678 3.40039,-2.3164 3.02263,0.31649 1.12086,12.09755 3.05273,14.77734 1.14185,-0.39946 2.302,-0.74403 3.47266,-1.05664 0.22739,-0.23353 0.45914,-0.47637 0.71094,-0.76758 0.89165,-1.03122 0.21143,-0.15082 -0.38086,0.67969 0.30776,-0.0798 0.6122,-0.17031 0.92187,-0.24414 3.20984,-0.6893 6.4988,-0.7789 9.76758,-0.8711 3.77835,-0.10965 7.56021,-0.0555 11.33789,-0.17773 4.20094,-0.24853 8.38844,-0.68735 12.56641,-1.18555 3.89456,-0.29695 7.72355,-0.84297 11.51953,-1.75 13.33775,-3.18696 17.33581,8.99108 6.56836,13.61719 h 125.6875 v -75.80469 z" />
    </clipPath>
    <linearGradient
       inkscape:collect="always"
       xlink:href="#linearGradient29"
       id="linearGradient30"
       x1="615.07703"
       y1="1074.1791"
       x2="615.02228"
       y2="197.41606"
       gradientUnits="userSpaceOnUse" />
    <radialGradient
       inkscape:collect="always"
       xlink:href="#linearGradient32"
       id="radialGradient33"
       gradientUnits="userSpaceOnUse"
       gradientTransform="matrix(1,0,0,2.3390053,0,-628.39457)"
       cx="578.01239"
       cy="469.29956"
       fx="578.01239"
       fy="469.29956"
       r="35.895782" />
  </defs>
  <g
     inkscape:label="Layer 1"
     inkscape:groupmode="layer"
     id="layer1"
     transform="translate(-237.62985,-219.29532)">
    <rect
       style="display:none;fill:#1b1b1b;fill-opacity:1;stroke:none;stroke-width:20;stroke-linecap:round;stroke-linejoin:bevel;stroke-dasharray:none;stroke-opacity:1;paint-order:stroke fill markers"
       id="rect30"
       width="1116.9835"
       height="1404.731"
       x="-18.311205"
       y="-26.158863"
       ry="27.351145" />
    <g
       id="g13"
       inkscape:export-filename="..\infiernogato\enemies\soul\soul.svg"
       inkscape:export-xdpi="96"
       inkscape:export-ydpi="96">
      <path
         style="display:none;fill:#000000;fill-opacity:0.733333;stroke:url(#linearGradient10);stroke-width:5;stroke-linecap:round;stroke-linejoin:bevel;stroke-dasharray:none;stroke-opacity:1;paint-order:stroke fill markers"
         id="path2"
         d="m 441.24368,645.23334 c -5.46176,-5.3578 -10.01692,-11.38181 -14.79027,-17.35908 -3.49346,-4.37456 -7.09546,-8.66456 -10.48143,-13.12283 -8.54989,-11.25754 -10.67541,-14.89841 -18.2523,-26.4291 -10.29505,-16.8013 -15.42149,-35.60228 -15.17025,-55.27373 0.0436,-3.40989 0.38279,-6.8096 0.57418,-10.21439 1.95167,-14.2776 5.059,-28.81659 12.2431,-41.49791 4.46481,-7.88127 7.06995,-10.33442 12.78619,-17.0587 2.30838,-1.93829 4.46628,-4.07142 6.92513,-5.81488 3.85771,-2.73535 11.16365,-6.32178 15.36612,-8.41985 7.70278,-3.8456 15.58906,-7.22759 23.44936,-10.73349 18.78919,-9.93966 34.49741,-24.39005 49.74256,-38.97169 21.05628,-21.58168 38.81203,-46.18182 56.1953,-70.74741 6.44777,-10.34918 13.36145,-20.47292 19.24974,-31.16534 4.29832,-7.80523 7.87428,-16.04813 11.75615,-24.06494 4.17453,-7.97503 6.40695,-16.70596 9.51548,-25.08967 1.48446,-4.00356 2.49739,-5.87184 4.32769,-9.64349 7.98901,-10.5672 11.51252,-11.70335 24.37273,-12.07167 2.4838,0.28051 4.99158,0.39742 7.45139,0.84154 8.75452,1.58062 14.5804,3.70117 23.22353,6.90967 13.18581,4.89483 25.96057,10.70479 38.70484,16.62701 6.37208,3.37533 13.25572,6.70811 18.64496,11.67605 3.80969,3.51187 6.93041,8.28064 9.95823,12.46076 2.33387,2.83389 3.82476,6.21517 5.8945,9.21826 2.48062,3.59925 5.41842,6.86494 7.96564,10.41737 2.61539,3.6475 4.69039,7.07841 7.07588,10.87498 7.59233,15.88591 18.13616,29.96764 28.22824,44.29603 10.12405,13.91952 20.89851,27.33438 32.91438,39.68331 5.5157,5.66859 11.37875,10.98867 17.03368,16.51838 9.67955,8.77236 19.11917,17.90376 25.93484,29.1316 4.20866,10.07353 5.2814,21.54887 6.95941,32.30164 2.01407,9.91336 1.49259,19.72723 -0.12164,29.61915 -1.3778,10.48153 -6.75179,19.85917 -11.92577,28.90337 -7.07231,12.11105 -15.25592,23.57915 -23.67679,34.78573 -8.78715,11.81076 -16.83764,24.16436 -25.80397,35.85079 -9.11355,11.48968 -15.74468,24.60235 -22.12314,37.72972 -6.73353,12.58672 -9.94229,26.38484 -11.47218,40.46306 -1.56456,10.48335 -1.78449,21.05955 -1.81344,31.63542 0.0874,13.66721 0.15697,27.33435 0.18494,41.00184 0.24037,18.83284 2.86177,37.48818 5.1135,56.15289 1.68372,17.47726 3.40074,34.96604 4.14486,52.51369 1.36112,15.25552 3.95494,30.49174 3.50465,45.84338 -0.44147,7.72003 -2.2942,15.45561 -6.30693,22.11083 -0.53751,0.9213 -0.97997,1.90508 -1.61253,2.7639 -1.5719,2.13414 -3.48033,3.99895 -5.18714,6.02681 -2.97567,3.53538 -5.83051,7.15449 -8.86103,10.64264 -3.72683,4.1251 -8.55161,7.13703 -13.21618,10.10894 -0.85001,0.81262 -1.51916,1.63754 -2.70681,1.80766 0,0 3.10285,2.1498 3.10285,2.1498 v 0 c 1.14761,-0.34816 1.9246,-1.07375 2.77145,-1.9219 4.66821,-3.02748 9.52731,-6.03351 13.24946,-10.21432 3.02334,-3.49678 5.88165,-7.11618 8.86358,-10.64871 1.72346,-2.0417 3.64398,-3.92416 5.22928,-6.07491 0.63191,-0.85731 1.07577,-1.83845 1.61365,-2.75768 4.03177,-6.71526 5.92704,-14.50892 6.37215,-22.29323 0.45991,-15.3613 -2.15789,-30.60848 -3.50734,-45.87485 -0.75212,-17.56178 -2.48663,-35.06207 -4.16291,-52.55457 -2.24325,-18.64992 -4.8631,-37.28969 -5.11706,-56.10591 -0.0119,-13.66204 -0.0644,-27.3238 -0.15632,-40.98554 0.0274,-10.56397 0.24236,-21.12968 1.79202,-31.60282 1.48899,-14.04486 4.68351,-27.80442 11.39203,-40.36079 6.37579,-13.10021 12.99614,-26.19124 22.09347,-37.66069 8.96009,-11.69238 17.01699,-24.04221 25.80059,-35.85712 8.42378,-11.22444 16.62648,-22.69781 23.72978,-34.80863 5.18174,-9.08668 10.58445,-18.5054 11.98367,-29.02307 1.64543,-9.92634 2.19583,-19.77931 0.16221,-29.73112 -1.68314,-10.79475 -2.763,-22.26523 -6.86977,-32.41951 -6.77924,-11.29785 -16.25309,-20.46629 -25.97272,-29.24997 -5.66209,-5.53437 -11.54309,-10.84745 -17.07307,-16.51382 -12.02132,-12.31782 -22.76929,-25.7283 -32.8936,-39.62278 -10.07614,-14.31926 -20.65558,-28.36562 -28.19679,-44.26085 -2.29303,-3.66118 -4.54993,-7.38834 -7.0639,-10.90638 -2.53635,-3.54935 -5.49438,-6.78839 -7.97358,-10.37789 -2.07424,-3.00318 -3.5289,-6.40987 -5.87265,-9.24152 -2.92906,-4.06748 -6.29553,-9.16514 -9.93621,-12.57132 -7.14305,-6.68296 -16.55508,-10.57566 -24.94872,-15.32079 -12.74651,-5.90448 -25.52294,-11.70486 -38.70939,-16.58247 -8.67481,-3.20877 -14.53958,-5.33703 -23.3314,-6.89022 -2.47517,-0.43727 -4.9979,-0.53998 -7.49685,-0.80997 -12.97972,0.43255 -16.58028,1.77026 -24.59912,12.40781 -1.82714,3.77349 -2.86031,5.68843 -4.34181,9.69227 -3.09758,8.37137 -5.31445,17.09132 -9.47454,25.05658 -3.86702,8.01315 -7.42716,16.25235 -11.71243,24.05371 -5.87184,10.68974 -12.76291,20.81666 -19.19192,31.16557 -17.3506,24.56519 -35.12304,49.12555 -56.19876,70.66363 -15.22141,14.55489 -30.91429,28.9729 -49.69864,38.8499 -7.86464,3.50881 -15.75465,6.89433 -23.45807,10.75044 -4.30612,2.15552 -11.46716,5.6771 -15.40915,8.49264 -2.4676,1.76247 -4.63126,3.91573 -6.94689,5.87359 -5.68518,6.71182 -8.38382,9.29352 -12.83159,17.14474 -7.20512,12.71846 -10.32761,27.30446 -12.31295,41.61949 -0.1973,3.41395 -0.54396,6.82253 -0.5919,10.24183 -0.27665,19.73101 4.8317,38.61409 15.13694,55.47965 7.54911,11.49434 9.74877,15.24417 18.25411,26.46615 3.37495,4.45293 6.97254,8.73267 10.44788,13.10771 4.72469,5.94784 9.17099,12.03049 14.68225,17.27866 z"
         clip-path="url(#clipPath7)"
         inkscape:label="top" />
      <path
         style="display:none;fill:#000000;fill-opacity:0.733333;stroke-linecap:round;stroke-linejoin:bevel;paint-order:stroke fill markers"
         id="path9"
         d="m 762.25551,780.01733 c 0.12153,1.65387 0.14906,3.31735 0.3646,4.96161 0.75637,5.76994 1.95358,11.47348 2.92213,17.21162 2.07771,12.30936 4.31106,24.57449 6.65364,36.83616 3.93299,22.88108 10.30044,45.16948 18.62877,66.80819 6.55542,16.938 13.45057,33.77185 21.63517,50.00011 4.96301,9.84055 7.8261,14.5993 13.22916,24.08912 9.4781,14.67482 17.96718,30.02496 28.27886,44.15846 6.39922,8.771 8.00591,10.0643 15.05354,17.5857 7.91191,7.9082 16.19134,16.0278 26.68711,20.3985 -1.55397,-0.7779 -3.0174,-1.772 -4.66192,-2.3338 -0.88661,-0.3028 -1.86798,-0.1477 -2.8024,-0.2158 -1.18446,-0.086 -2.36846,-0.181 -3.5542,-0.2476 -4.76983,-0.2679 -9.54587,-0.3708 -14.32122,-0.4777 -6.34311,-0.7403 -14.36943,1.3181 -20.35791,-1.141 -2.07767,-0.8531 -3.95205,-2.1352 -5.92808,-3.2029 -1.62271,-1.3073 -3.22705,-2.6377 -4.86813,-3.9219 -10.92809,-8.5514 -13.0794,-9.725 -24.82775,-19.9535 -17.94563,-15.6241 -34.63625,-32.46084 -51.16119,-49.55074 -22.22398,-23.06514 -40.81557,-49.12054 -56.15539,-77.16672 -4.40131,-10.26691 -10.55639,-19.85882 -14.14392,-30.46556 -0.73774,-1.16758 -2.20839,-3.70308 -3.20862,2.48618 -0.51769,3.20339 0.69474,6.45269 1.01503,9.6818 0.51193,5.16108 0.96081,10.32833 1.48162,15.48853 4.16153,41.23257 0.15886,-0.98376 4.19192,42.53469 1.21241,17.14095 2.59286,34.26046 4.43826,51.34418 0.37517,3.4732 0.53189,6.97794 1.14043,10.41784 0.94128,5.3209 3.16176,11.3316 4.87393,16.437 1.03426,2.542 1.95984,5.131 3.10278,7.626 2.72426,5.947 5.96827,11.2381 9.34173,16.8643 6.63914,11.0726 13.44515,21.9968 20.62127,32.7276 7.9118,10.696 18.39256,18.9847 27.88133,28.2058 0.4717,0.3998 6.83394,7.2231 6.3733,8.3685 -0.34851,0.8666 -3.24945,0.035 -5.26752,-0.4388 -2.13518,-0.5012 -4.25479,-1.0666 -6.38219,-1.5999 -3.31844,-1.6542 -6.80985,-2.9993 -9.95533,-4.9626 -7.16843,-4.4742 -24.57466,-19.1594 -28.86759,-22.9625 -18.00386,-15.9495 -27.02659,-25.1312 -43.20133,-43.4978 -7.21006,-8.1872 -14.00668,-16.7293 -21.01001,-25.0939 -12.62423,-16.9476 -22.66669,-29.42189 -33.35886,-47.50996 -8.11772,-13.73285 -14.27236,-27.33848 -19.7128,-42.27677 -5.72817,-15.72839 -6.25516,-20.08773 -9.91103,-35.90967 -2.0406,-11.13647 -3.41895,-22.43716 -3.1367,-33.77751 0.0366,-1.46864 0.9996,-3.06626 0.36666,-4.39201 -0.43342,-0.90782 -2.49037,-1.80911 -2.88555,-0.884 -1.49062,3.48938 -1.03604,7.51781 -1.55406,11.27672 -7.0373,45.59495 -24.43374,88.4482 -39.76935,131.65276 -3.35324,9.44704 -6.51134,18.96214 -9.767,28.44314 -10.20159,30.4462 -20.36889,61.185 -26.02118,92.8765 -2.1647,12.1371 -2.18876,15.5095 -3.08348,26.931 0.0805,0.7066 -0.94458,12.3412 1.50481,13.4168 1.20882,0.5309 2.99934,1.6165 3.90591,0.6567 0.92265,-0.9768 -0.3054,-2.7002 -0.79312,-3.9522 -1.32062,-3.3902 -3.06793,-6.5983 -4.60189,-9.8974 -2.82231,-5.6816 -5.56614,-11.4028 -8.46691,-17.0448 -8.57017,-16.6687 -17.77878,-32.9993 -25.87939,-49.9122 -9.26051,-19.3346 -19.02438,-42.0357 -25.90571,-62.3212 -3.62268,-10.6794 -6.39576,-21.62834 -9.59365,-32.44252 -2.13204,-10.45873 -4.67097,-20.84269 -6.39613,-31.37618 -1.59691,-9.75043 -2.66631,-19.58655 -3.56197,-29.42621 -1.84794,-20.30142 -2.4837,-41.10143 1.84638,-61.17366 0.78564,-3.64185 2.18933,-7.12236 3.284,-10.68354 2.71531,-5.71737 5.1701,-11.68942 10.39744,-15.56573 1.87727,-1.39208 3.65962,-1.70347 5.1313,-3.50621 1.12653,-4.04462 -1.12318,-6.83184 -5.86273,-7.1541 -1.98213,-0.13478 -6.22777,5.62312 -7.32874,6.87818 -21.63622,27.76832 -43.2523,55.58069 -62.31343,85.21721 -4.37939,6.80914 -8.45193,13.81082 -12.6779,20.71623 -3.57497,6.37609 -7.20689,12.72058 -10.72492,19.12826 -6.04294,11.00654 -9.61847,17.70068 -14.7298,28.82034 -4.51461,9.82149 -8.53063,19.85953 -13.06067,29.67813 -8.97488,20.3003 -20.57401,39.3132 -34.02454,56.9345 -4.42963,4.8248 -9.3336,9.1657 -14.35688,13.3533 -1.06296,0.8862 -2.11038,1.7932 -3.21546,2.6263 -0.80929,0.61 -2.01827,0.8189 -2.52169,1.6985 -0.22589,0.3947 0.85409,0.3127 1.28114,0.469 -1.08866,-1.9777 -2.3179,-3.8844 -3.26597,-5.9332 -4.12724,-8.9193 -7.61301,-18.7111 -10.58805,-28.0107 -3.78601,-11.8345 -6.94661,-23.1695 -9.16095,-35.4092 -0.99428,-5.4958 -1.4984,-11.0691 -2.2476,-16.6036 0.0864,-12.8692 -0.48893,-19.94695 2.09437,-32.66321 4.18826,-20.6166 12.23673,-40.7274 21.72461,-59.42511 2.87337,-5.66253 6.19105,-11.08841 9.28658,-16.63261 11.75908,-20.32646 28.82409,-36.56833 44.49337,-53.76864 9.71056,-10.65937 14.61623,-16.58926 23.88953,-27.4671 7.70688,-9.32532 15.78123,-18.4003 22.96483,-28.15039 5.50416,-7.47065 10.41813,-15.35953 15.83177,-22.89812 4.39394,-5.34253 7.41015,-11.60796 11.23213,-17.32432 0.97232,-1.45425 2.11408,-2.78846 3.1279,-4.2141 3.59382,-5.05365 3.22046,-4.68815 6.42316,-10.11096 1.0426,-1.84745 2.0852,-3.69489 3.1278,-5.54234 0.96416,-1.8948 1.85524,-3.8286 2.89247,-5.68441 1.0205,-1.82589 2.22928,-3.54115 3.27595,-5.35216 2.80197,-4.84814 5.17143,-9.86274 7.41633,-14.98398 2.79529,-5.36744 4.10264,-11.26589 5.87855,-16.99229 1.81343,-5.84742 3.76324,-11.59603 5.40636,-17.50068 1.82259,-6.40641 3.0097,-12.9164 2.77016,-19.5766 -0.0867,-1.6743 0.12848,-2.39936 -0.89121,-3.8177 -1.80002,-2.50374 -6.32029,-4.56243 -9.03468,-5.32294 -3.4533,-1.72128 0.35366,0.29795 0.57079,0.3222 0.55223,0.0617 -0.96059,-0.563 -1.40733,-0.89343 -0.83126,-0.61486 -1.57746,-1.33752 -2.38483,-1.98342 0,0 -3.49688,-1.40023 -3.49688,-1.40023 v 0 c 3.03715,2.3543 5.98906,4.92799 9.69846,6.25601 0.52587,0.16911 1.72022,1.04098 1.57762,0.50731 -0.17782,-0.66549 -1.0822,-0.91035 -1.73997,-1.11489 -0.54534,-0.16958 0.92917,0.66437 1.38737,1.00525 1.77966,1.324 2.54546,2.40131 2.36352,4.74721 0.26168,6.62979 -0.853,13.11369 -2.67743,19.49474 -1.64301,5.9048 -3.58958,11.65356 -5.40451,17.50059 -1.77213,5.70915 -3.06672,11.59372 -5.86335,16.94169 -2.23434,5.10725 -4.58988,10.11091 -7.38163,14.94538 -1.05087,1.81979 -2.26459,3.54345 -3.28974,5.37786 -1.03453,1.85118 -1.92304,3.78026 -2.88456,5.67039 -1.04214,1.84488 -2.08428,3.68977 -3.12643,5.53466 -3.25642,5.50759 -2.76099,4.93803 -6.41157,10.07295 -1.02021,1.43503 -2.16457,2.78168 -3.14043,4.24722 -3.80544,5.71497 -6.80558,11.97786 -11.19298,17.3137 -5.39759,7.5431 -10.31823,15.42118 -15.81195,22.89293 -7.16846,9.74948 -15.18782,18.85696 -22.88284,28.18078 -9.25838,10.87222 -14.16517,16.8136 -23.86816,27.46042 -15.69358,17.22014 -32.81402,33.45135 -44.5378,53.84368 -3.09348,5.55563 -6.40669,10.99447 -9.28043,16.66688 -9.48278,18.71783 -17.59189,38.87357 -21.82262,59.49892 -2.59851,12.66804 -2.0322,19.92214 -2.133,32.74706 0.74954,5.546 1.25518,11.1305 2.24864,16.6381 3.78645,20.9915 10.86919,43.9487 19.59512,63.4568 0.93435,2.0888 2.09544,4.0687 3.14315,6.1031 1.79509,0.967 3.36813,2.6034 5.38528,2.901 1.01122,0.1492 1.71656,-1.1139 2.52961,-1.7334 1.10134,-0.8392 2.14762,-1.7484 3.2082,-2.6386 5.02576,-4.2182 9.93857,-8.5826 14.35986,-13.445 13.42098,-17.6726 25.06465,-36.6883 34.06181,-57.006 4.52352,-9.8228 8.52201,-19.86484 13.01309,-29.69809 5.03981,-11.03474 8.6876,-17.93596 14.64945,-28.84065 3.50452,-6.41006 7.13068,-12.75287 10.69602,-19.12931 4.2179,-6.9042 8.27877,-13.9068 12.65368,-20.71259 19.04963,-29.63437 40.68866,-57.42431 62.46633,-85.07077 1.5424,-1.7266 2.91716,-3.61906 4.6272,-5.1798 0.71163,-0.6495 2.20812,-0.46539 2.54643,-1.36751 0.25457,-0.67884 -0.86524,-1.17877 -1.41377,-1.65283 -0.41462,-0.35832 0.77588,0.80295 1.00589,1.30033 0.64453,1.39375 0.30567,1.91786 0.0219,3.3203 -1.42728,1.71297 -3.29091,2.1115 -5.07388,3.47053 -5.22507,3.98271 -7.71667,9.98368 -10.43581,15.7805 -1.08926,3.58433 -2.48731,7.089 -3.26776,10.75298 -4.28828,20.13225 -3.61847,40.97752 -1.75393,61.32833 0.9026,9.85152 1.97337,19.69988 3.57293,29.46248 1.72776,10.54501 4.26733,20.94085 6.40099,31.41128 3.19564,10.82295 5.96753,21.78022 9.58693,32.46892 6.86366,20.2696 16.62227,43.0103 25.85334,62.3373 8.19066,17.1487 17.13542,32.9886 25.76714,49.8568 2.8787,5.6256 5.59349,11.3336 8.39023,17.0004 1.52278,3.264 3.21815,6.4528 4.56835,9.7919 1.97125,4.8749 -0.82338,2.926 3.70805,6.4247 0.43871,0.3388 -0.84253,-0.7931 -1.00863,-1.3219 -1.19579,-3.807 -0.72123,-8.0682 -0.70106,-11.9127 0.84939,-11.4744 0.84415,-14.719 2.98849,-26.9286 5.5682,-31.7046 15.72157,-62.4427 25.89633,-92.8939 3.2483,-9.4825 6.3955,-19.0001 9.7449,-28.44744 15.32205,-43.21692 32.75753,-86.05039 39.99982,-131.61081 0.5926,-3.82558 2.36199,-7.64986 1.77781,-11.47673 -0.22844,-1.49647 -2.53082,-3.01733 -3.88803,-2.34682 -1.33074,0.65742 -0.31554,2.95531 -0.34737,4.43924 -0.24411,11.38092 1.13526,22.71983 3.19463,33.89498 3.66799,15.87409 4.18621,20.20009 9.93145,35.98227 5.44812,14.966 11.60757,28.60402 19.73811,42.36305 10.67214,18.06011 20.79755,30.65222 33.3944,47.56886 6.99991,8.3694 13.79579,16.9137 20.99972,25.1081 16.20414,18.4321 25.07408,27.4851 43.09179,43.5016 12.01362,10.6792 21.38056,18.2451 35.00429,26.5711 3.18216,1.9448 6.69531,3.2872 10.04297,4.9307 0.52384,0.1305 11.15586,3.6142 12.12087,1.3575 0.52538,-1.2287 -5.83818,-8.075 -6.35479,-8.5235 -9.49471,-9.2316 -19.9675,-17.5326 -27.97237,-28.1606 -7.1925,-10.7143 -13.98604,-21.6326 -20.61945,-32.7033 -3.26197,-5.444 -6.66727,-11.0157 -9.33676,-16.8038 -1.14733,-2.4878 -2.0762,-5.0706 -3.1143,-7.6058 -1.65461,-4.8954 -4.00739,-11.2804 -4.92858,-16.3758 -0.62242,-3.4427 -0.78242,-6.9533 -1.16807,-10.43054 -1.89579,-17.09384 -3.3334,-34.22379 -4.52741,-51.38212 -4.68357,-50.98706 0.59352,5.58491 -4.1269,-42.50295 -0.50568,-5.15144 -0.93372,-10.31023 -1.42371,-15.46318 -0.30609,-3.21894 -0.0115,-6.56251 -0.96453,-9.65233 -1.55165,-5.03044 -6.08955,-6.74954 -3.54033,-5.74877 3.60841,10.6426 9.77625,20.25945 14.20125,30.56286 15.35927,28.10196 33.99928,54.19889 56.25273,77.31369 26.90884,27.85694 54.52916,55.67324 86.99829,77.10344 2.00188,1.0469 3.90344,2.3134 6.00565,3.1405 6.02816,2.3719 14.04808,0.3271 20.40431,1.0798 5.96845,0.1341 11.92418,0.3195 17.87927,0.7529 0.94076,0.068 2.26045,0.9684 2.8219,0.2104 0.51406,-0.6939 -0.88755,-1.4817 -1.33132,-2.2226 -0.52444,-0.2264 -1.01801,-0.5452 -1.5733,-0.679 -0.16024,-0.039 0.45887,0.4657 0.32004,0.3769 -7.0706,-4.5258 -13.19032,-10.4392 -19.09374,-16.3487 -7.0562,-7.4777 -8.71557,-8.8101 -15.1071,-17.5444 -10.32916,-14.1151 -18.77955,-29.48394 -28.28798,-44.13269 -5.3992,-9.46096 -8.29148,-14.25888 -13.24867,-24.06964 -8.19051,-16.20983 -15.0794,-33.03353 -21.62108,-49.9618 -8.33732,-21.61958 -14.73023,-43.89239 -18.67326,-66.75691 -2.33274,-12.25485 -4.57918,-24.50965 -6.63021,-36.81505 -0.95329,-5.7194 -2.13319,-11.4047 -2.88337,-17.15427 -0.21288,-1.63156 -0.23305,-3.28251 -0.34957,-4.92377 z"
         inkscape:label="bottom" />
      <path
         style="display:inline;fill:url(#radialGradient12);stroke:url(#linearGradient30);stroke-width:20;stroke-linecap:round;stroke-linejoin:bevel;stroke-dasharray:none;stroke-opacity:1;paint-order:stroke fill markers"
         d="m 487.90942,1096.4935 c -37.6436,-74.8738 -50.64189,-116.38649 -56.23941,-179.61211 -3.60363,-40.70389 2.01334,-70.49587 15.41784,-81.77502 3.1087,-2.61579 5.17475,-5.96602 4.82166,-7.81858 -0.78733,-4.13085 -8.5245,-5.31759 -11.36594,-1.74332 -54.56275,68.6353 -82.19168,112.00381 -110.32802,173.17947 -18.17771,39.52306 -30.63147,60.03456 -46.06535,75.87036 l -11.80356,12.1109 -5.31062,-11.5567 c -6.72733,-14.6397 -15.53216,-45.8565 -18.32891,-64.9836 -3.77634,-25.82651 2.43203,-55.91243 18.70671,-90.65315 10.31342,-22.01552 24.59983,-42.64462 44.33649,-64.02042 46.60527,-50.47588 83.11721,-99.08264 105.12433,-139.94749 9.41811,-17.4884 19.16818,-44.63036 21.65541,-60.28372 0.68702,-4.3237 1.97511,-7.86128 2.86243,-7.86128 4.15532,0 0.59916,-6.76975 -10.44957,-19.89245 -38.35499,-45.55465 -49.52958,-74.59043 -42.9634,-111.63509 6.15488,-34.72422 18.3459,-50.46291 51.02943,-65.87929 26.50773,-12.50336 38.26893,-20.46354 58.42564,-39.54355 23.36858,-22.12032 60.2051,-68.43387 66.82553,-84.01795 1.30672,-3.07594 6.13318,-11.6868 10.72545,-19.13525 7.97734,-12.93885 19.03242,-36.83202 26.21564,-56.65942 1.84285,-5.08671 6.14657,-12.05941 9.56382,-15.4949 6.20963,-6.24273 6.22143,-6.24578 20.49867,-5.28346 10.79117,0.72735 18.85773,2.78291 32.97803,8.40361 27.309,10.87058 47.11114,21.35659 53.6109,28.38907 9.29159,10.05317 29.48091,40.42072 37.6693,56.65996 11.49831,22.80339 32.74838,50.03575 63.20946,81.00406 15.15429,15.40666 28.64764,30.78581 30.13584,34.34759 4.68596,11.21508 8.84857,40.26408 7.50938,52.40477 -1.87934,17.03775 -10.91431,33.55213 -42.67353,78.00002 -29.68479,41.54464 -44.21925,66.9999 -50.11215,87.76513 -2.92719,10.31476 -3.35136,19.22056 -3.29487,69.17987 l 0.0647,57.34104 7.74888,39.76879 c 4.26188,21.87283 9.74524,46.42848 12.18523,54.56812 18.88224,62.98956 60.44375,138.73319 92.6622,168.87199 l 12.26488,11.4732 h -16.39795 c -15.16747,0 -17.03399,-0.4213 -24.87414,-5.6144 -14.32296,-9.4871 -47.44194,-38.9731 -70.81043,-63.04286 -33.73736,-34.74976 -55.39145,-64.91583 -72.5393,-101.05374 -12.30415,-25.93012 -13.39657,-23.83364 -8.91557,17.10983 1.44743,13.22543 3.97554,40.69364 5.618,61.04046 3.49924,43.34901 6.31831,54.50331 19.62619,77.65541 16.07513,27.9665 26.8669,42.6102 40.44139,54.8764 13.39015,12.0996 15.08828,14.5202 10.18612,14.5202 -8.65385,0 -36.81814,-21.5066 -64.43684,-49.2047 -68.88197,-69.0802 -108.35178,-142.57625 -108.42348,-201.89355 -0.009,-8.24389 -0.70368,-11.5607 -2.41798,-11.5607 -1.60368,0 -3.15411,5.18794 -4.65714,15.58345 -3.16486,21.88926 -14.293,59.89153 -31.45626,107.42233 -25.71835,71.22257 -38.53882,113.84317 -42.90947,142.64887 -1.21642,8.0171 -2.75248,16.068 -3.41345,17.8909 -0.85237,2.3507 -7.22923,-8.6743 -21.93232,-37.9191 z"
         id="path10"
         inkscape:label="color" />
    </g>
    <g
       id="g15"
       inkscape:label="eye L">
      <path
         style="fill:#000000;fill-opacity:0.733333;stroke:#000000;stroke-width:10;stroke-linecap:round;stroke-linejoin:bevel;stroke-dasharray:none;stroke-opacity:1;paint-order:stroke fill markers"
         id="path13"
         d="m 572.1187,556.48955 c -6.79164,-1.91466 -13.53477,-3.94487 -20.14646,-7.15109 -5.44537,-4.8123 -10.02045,-11.32745 -12.68835,-20.66708 -0.68838,-2.40985 -1.12732,-4.99129 -1.69098,-7.48693 -2.07948,-12.97135 -1.29056,-25.96565 0.30646,-38.90012 0.98431,-8.61958 1.46438,-9.25418 5.39256,-14.60113 5.38581,-5.58124 9.10172,-14.08477 13.55472,-21.33587 3.85214,-5.81936 7.77406,-11.66035 11.16157,-18.23271 3.84679,-6.57247 7.86569,-12.96583 11.35892,-20.06591 3.21664,-6.35947 6.01695,-13.26328 8.98974,-19.93376 3.31845,-6.28355 4.84809,-10.27748 10.1162,-8.87546 2.17726,1.19876 7.97339,2.22989 9.19284,5.79112 0.20187,0.58955 -0.31374,1.25072 -0.47059,1.87608 2.54331,12.17077 2.77694,25.21458 1.93979,37.90176 -0.62962,8.14748 -0.52264,16.33169 -0.74852,24.50976 -0.31664,10.63626 1.92385,20.62655 3.94027,30.53609 1.51072,7.83238 3.5008,15.27664 5.85036,22.51025 1.54787,5.76251 1.3284,12.49982 1.21231,18.7029 -0.3991,4.86567 -0.36162,10.25057 -1.6646,14.76048 -0.84801,3.11243 -2.58693,4.84724 -4.02469,7.12386 -3.49918,5.54075 0.88706,-0.95209 -2.32278,3.72867 -0.38691,0.4761 -0.74879,1.01265 -1.16074,1.42827 -2.29102,2.31142 -0.0902,-0.58172 -2.56238,2.28959 -1.66006,1.92812 -3.08613,3.8833 -4.87121,5.53915 -2.80789,1.73237 -5.77736,3.31007 -8.805,2.9804 -3.78397,-0.23609 -7.55325,0.13084 -11.33434,0.23526 -3.11382,-0.18886 -6.12916,0.57711 -9.24379,0.0312 -3.41071,-0.84222 -6.7829,-2.05782 -10.1662,-3.15086 -3.39875,-1.09355 -6.80505,-2.12232 -10.21075,-3.15557 -2.64274,-0.27344 -4.9001,-2.12075 -7.28625,-3.7679 0,0 1.82034,3.29274 1.82034,3.29274 v 0 c 2.38869,1.66561 4.68814,3.38439 7.32666,3.69778 3.40446,1.03589 6.80991,2.0639 10.20771,3.15765 3.3888,1.09604 6.766,2.32825 10.18688,3.127 3.11746,0.50216 6.14785,-0.27922 9.26533,-0.0718 3.77674,-0.12722 7.54364,-0.46009 11.32315,-0.20711 3.06618,0.22402 6.07632,-1.35765 8.90729,-3.17104 1.77677,-1.66278 3.21649,-3.63062 4.87894,-5.53938 2.38306,-2.73612 0.31906,3e-5 2.58308,-2.32419 0.41619,-0.42725 0.78357,-0.97098 1.17535,-1.45646 3.46643,-5.0927 -1.39817,2.14854 2.31883,-3.73076 1.46349,-2.31482 3.23157,-4.09209 4.10093,-7.25119 1.34824,-4.54183 1.3124,-9.99397 1.72554,-14.91636 0.13629,-6.24784 0.34707,-13.04641 -1.127,-18.88788 -2.34056,-7.23557 -4.40262,-14.61398 -5.88923,-22.46444 -2.01101,-9.86866 -4.29245,-19.79836 -3.99297,-30.39704 0.24133,-8.17213 0.10822,-16.35058 0.73253,-24.49503 0.86134,-12.74959 0.61145,-25.84264 -1.848,-38.11678 -1.17958,-2.5559 -2.22121,-5.3004 -3.53873,-7.6677 -2.24066,-4.02599 -6.36031,-4.08603 -9.2875,-5.65984 -5.32788,-1.19767 -6.97236,2.89218 -10.30455,9.24476 -2.97257,6.66137 -5.78629,13.53972 -8.99231,19.90287 -3.489,7.10096 -7.4933,13.51281 -11.34858,20.06657 -3.38715,6.55642 -7.30502,12.38275 -11.14437,18.20682 -4.44262,7.2517 -8.15907,15.7367 -13.54823,21.29227 -3.97126,5.39921 -4.52095,6.1503 -5.50014,14.84523 -1.601,13.00395 -2.42158,26.0575 -0.37725,39.11558 1.34094,6.0716 1.76119,9.23798 4.06492,14.59385 0.78812,1.83225 1.77944,3.41456 2.7678,4.96321 3.5059,5.49328 7.23437,10.70667 11.57845,14.31344 6.62524,3.18235 13.38553,5.17412 20.17956,7.14294 z"
         inkscape:label="path13" />
      <path
         style="fill:url(#radialGradient15);fill-opacity:0.733333;stroke:none;stroke-width:10;stroke-linecap:round;stroke-linejoin:bevel;stroke-dasharray:none;stroke-opacity:1;paint-order:stroke fill markers"
         d="m 575.4296,552.09682 c -0.6834,-0.63971 -4.4797,-2.09876 -8.43623,-3.24231 -10.75834,-3.10946 -14.96998,-6.27372 -18.79655,-14.12208 -5.83544,-11.96859 -7.5079,-29.05768 -4.85535,-49.61161 0.92936,-7.20132 2.18888,-10.22867 7.61835,-18.3112 13.74461,-20.4608 30.98355,-50.40975 37.94716,-65.92504 7.14292,-15.91479 8.03423,-17.03912 11.49844,-14.5044 2.43089,1.77865 2.56022,3.72154 2.63455,39.57807 0.0835,40.288 0.5487,44.47571 8.03891,72.3681 2.86279,10.66061 3.22119,14.06216 2.52329,23.94868 -0.86631,12.27223 -2.75873,16.34429 -12.42419,26.73412 -3.81371,4.09951 -4.3202,4.25082 -14.23015,4.25082 -5.65162,0 -10.83483,-0.52342 -11.51823,-1.16315 z"
         id="path14" />
    </g>
    <g
       id="g33"
       inkscape:label="eye L"
       transform="matrix(-1,0,0,1,1299.7158,20.927091)">
      <path
         style="fill:#000000;fill-opacity:0.733333;stroke:#000000;stroke-width:10;stroke-linecap:round;stroke-linejoin:bevel;stroke-dasharray:none;stroke-opacity:1;paint-order:stroke fill markers"
         id="path32"
         d="m 572.1187,556.48955 c -6.79164,-1.91466 -13.53477,-3.94487 -20.14646,-7.15109 -5.44537,-4.8123 -10.02045,-11.32745 -12.68835,-20.66708 -0.68838,-2.40985 -1.12732,-4.99129 -1.69098,-7.48693 -2.07948,-12.97135 -1.29056,-25.96565 0.30646,-38.90012 0.98431,-8.61958 1.46438,-9.25418 5.39256,-14.60113 5.38581,-5.58124 9.10172,-14.08477 13.55472,-21.33587 3.85214,-5.81936 7.77406,-11.66035 11.16157,-18.23271 3.84679,-6.57247 7.86569,-12.96583 11.35892,-20.06591 3.21664,-6.35947 6.01695,-13.26328 8.98974,-19.93376 3.31845,-6.28355 4.84809,-10.27748 10.1162,-8.87546 2.17726,1.19876 7.97339,2.22989 9.19284,5.79112 0.20187,0.58955 -0.31374,1.25072 -0.47059,1.87608 2.54331,12.17077 2.77694,25.21458 1.93979,37.90176 -0.62962,8.14748 -0.52264,16.33169 -0.74852,24.50976 -0.31664,10.63626 1.92385,20.62655 3.94027,30.53609 1.51072,7.83238 3.5008,15.27664 5.85036,22.51025 1.54787,5.76251 1.3284,12.49982 1.21231,18.7029 -0.3991,4.86567 -0.36162,10.25057 -1.6646,14.76048 -0.84801,3.11243 -2.58693,4.84724 -4.02469,7.12386 -3.49918,5.54075 0.88706,-0.95209 -2.32278,3.72867 -0.38691,0.4761 -0.74879,1.01265 -1.16074,1.42827 -2.29102,2.31142 -0.0902,-0.58172 -2.56238,2.28959 -1.66006,1.92812 -3.08613,3.8833 -4.87121,5.53915 -2.80789,1.73237 -5.77736,3.31007 -8.805,2.9804 -3.78397,-0.23609 -7.55325,0.13084 -11.33434,0.23526 -3.11382,-0.18886 -6.12916,0.57711 -9.24379,0.0312 -3.41071,-0.84222 -6.7829,-2.05782 -10.1662,-3.15086 -3.39875,-1.09355 -6.80505,-2.12232 -10.21075,-3.15557 -2.64274,-0.27344 -4.9001,-2.12075 -7.28625,-3.7679 0,0 1.82034,3.29274 1.82034,3.29274 v 0 c 2.38869,1.66561 4.68814,3.38439 7.32666,3.69778 3.40446,1.03589 6.80991,2.0639 10.20771,3.15765 3.3888,1.09604 6.766,2.32825 10.18688,3.127 3.11746,0.50216 6.14785,-0.27922 9.26533,-0.0718 3.77674,-0.12722 7.54364,-0.46009 11.32315,-0.20711 3.06618,0.22402 6.07632,-1.35765 8.90729,-3.17104 1.77677,-1.66278 3.21649,-3.63062 4.87894,-5.53938 2.38306,-2.73612 0.31906,3e-5 2.58308,-2.32419 0.41619,-0.42725 0.78357,-0.97098 1.17535,-1.45646 3.46643,-5.0927 -1.39817,2.14854 2.31883,-3.73076 1.46349,-2.31482 3.23157,-4.09209 4.10093,-7.25119 1.34824,-4.54183 1.3124,-9.99397 1.72554,-14.91636 0.13629,-6.24784 0.34707,-13.04641 -1.127,-18.88788 -2.34056,-7.23557 -4.40262,-14.61398 -5.88923,-22.46444 -2.01101,-9.86866 -4.29245,-19.79836 -3.99297,-30.39704 0.24133,-8.17213 0.10822,-16.35058 0.73253,-24.49503 0.86134,-12.74959 0.61145,-25.84264 -1.848,-38.11678 -1.17958,-2.5559 -2.22121,-5.3004 -3.53873,-7.6677 -2.24066,-4.02599 -6.36031,-4.08603 -9.2875,-5.65984 -5.32788,-1.19767 -6.97236,2.89218 -10.30455,9.24476 -2.97257,6.66137 -5.78629,13.53972 -8.99231,19.90287 -3.489,7.10096 -7.4933,13.51281 -11.34858,20.06657 -3.38715,6.55642 -7.30502,12.38275 -11.14437,18.20682 -4.44262,7.2517 -8.15907,15.7367 -13.54823,21.29227 -3.97126,5.39921 -4.52095,6.1503 -5.50014,14.84523 -1.601,13.00395 -2.42158,26.0575 -0.37725,39.11558 1.34094,6.0716 1.76119,9.23798 4.06492,14.59385 0.78812,1.83225 1.77944,3.41456 2.7678,4.96321 3.5059,5.49328 7.23437,10.70667 11.57845,14.31344 6.62524,3.18235 13.38553,5.17412 20.17956,7.14294 z"
         inkscape:label="path13" />
      <path
         style="fill:url(#radialGradient33);fill-opacity:0.733333;stroke:none;stroke-width:10;stroke-linecap:round;stroke-linejoin:bevel;stroke-dasharray:none;stroke-opacity:1;paint-order:stroke fill markers"
         d="m 575.4296,552.09682 c -0.6834,-0.63971 -4.4797,-2.09876 -8.43623,-3.24231 -10.75834,-3.10946 -14.96998,-6.27372 -18.79655,-14.12208 -5.83544,-11.96859 -7.5079,-29.05768 -4.85535,-49.61161 0.92936,-7.20132 2.18888,-10.22867 7.61835,-18.3112 13.74461,-20.4608 30.98355,-50.40975 37.94716,-65.92504 7.14292,-15.91479 8.03423,-17.03912 11.49844,-14.5044 2.43089,1.77865 2.56022,3.72154 2.63455,39.57807 0.0835,40.288 0.5487,44.47571 8.03891,72.3681 2.86279,10.66061 3.22119,14.06216 2.52329,23.94868 -0.86631,12.27223 -2.75873,16.34429 -12.42419,26.73412 -3.81371,4.09951 -4.3202,4.25082 -14.23015,4.25082 -5.65162,0 -10.83483,-0.52342 -11.51823,-1.16315 z"
         id="path33" />
    </g>
    <g
       id="g16"
       inkscape:label="eye L"
       transform="matrix(-1,0,0,1,1305.6687,3.6994219)"
       style="display:none">
      <path
         style="fill:#000000;fill-opacity:0.733333;stroke:#000000;stroke-width:10;stroke-linecap:round;stroke-linejoin:bevel;stroke-dasharray:none;stroke-opacity:1;paint-order:stroke fill markers"
         id="path15"
         d="m 572.1187,556.48955 c -6.79164,-1.91466 -13.53477,-3.94487 -20.14646,-7.15109 -5.44537,-4.8123 -10.02045,-11.32745 -12.68835,-20.66708 -0.68838,-2.40985 -1.12732,-4.99129 -1.69098,-7.48693 -2.07948,-12.97135 -1.29056,-25.96565 0.30646,-38.90012 0.98431,-8.61958 1.46438,-9.25418 5.39256,-14.60113 5.38581,-5.58124 9.10172,-14.08477 13.55472,-21.33587 3.85214,-5.81936 7.77406,-11.66035 11.16157,-18.23271 3.84679,-6.57247 7.86569,-12.96583 11.35892,-20.06591 3.21664,-6.35947 6.01695,-13.26328 8.98974,-19.93376 3.31845,-6.28355 4.84809,-10.27748 10.1162,-8.87546 2.17726,1.19876 7.97339,2.22989 9.19284,5.79112 0.20187,0.58955 -0.31374,1.25072 -0.47059,1.87608 2.54331,12.17077 2.77694,25.21458 1.93979,37.90176 -0.62962,8.14748 -0.52264,16.33169 -0.74852,24.50976 -0.31664,10.63626 1.92385,20.62655 3.94027,30.53609 1.51072,7.83238 3.5008,15.27664 5.85036,22.51025 1.54787,5.76251 1.3284,12.49982 1.21231,18.7029 -0.3991,4.86567 -0.36162,10.25057 -1.6646,14.76048 -0.84801,3.11243 -2.58693,4.84724 -4.02469,7.12386 -3.49918,5.54075 0.88706,-0.95209 -2.32278,3.72867 -0.38691,0.4761 -0.74879,1.01265 -1.16074,1.42827 -2.29102,2.31142 -0.0902,-0.58172 -2.56238,2.28959 -1.66006,1.92812 -3.08613,3.8833 -4.87121,5.53915 -2.80789,1.73237 -5.77736,3.31007 -8.805,2.9804 -3.78397,-0.23609 -7.55325,0.13084 -11.33434,0.23526 -3.11382,-0.18886 -6.12916,0.57711 -9.24379,0.0312 -3.41071,-0.84222 -6.7829,-2.05782 -10.1662,-3.15086 -3.39875,-1.09355 -6.80505,-2.12232 -10.21075,-3.15557 -2.64274,-0.27344 -4.9001,-2.12075 -7.28625,-3.7679 0,0 1.82034,3.29274 1.82034,3.29274 v 0 c 2.38869,1.66561 4.68814,3.38439 7.32666,3.69778 3.40446,1.03589 6.80991,2.0639 10.20771,3.15765 3.3888,1.09604 6.766,2.32825 10.18688,3.127 3.11746,0.50216 6.14785,-0.27922 9.26533,-0.0718 3.77674,-0.12722 7.54364,-0.46009 11.32315,-0.20711 3.06618,0.22402 6.07632,-1.35765 8.90729,-3.17104 1.77677,-1.66278 3.21649,-3.63062 4.87894,-5.53938 2.38306,-2.73612 0.31906,3e-5 2.58308,-2.32419 0.41619,-0.42725 0.78357,-0.97098 1.17535,-1.45646 3.46643,-5.0927 -1.39817,2.14854 2.31883,-3.73076 1.46349,-2.31482 3.23157,-4.09209 4.10093,-7.25119 1.34824,-4.54183 1.3124,-9.99397 1.72554,-14.91636 0.13629,-6.24784 0.34707,-13.04641 -1.127,-18.88788 -2.34056,-7.23557 -4.40262,-14.61398 -5.88923,-22.46444 -2.01101,-9.86866 -4.29245,-19.79836 -3.99297,-30.39704 0.24133,-8.17213 0.10822,-16.35058 0.73253,-24.49503 0.86134,-12.74959 0.61145,-25.84264 -1.848,-38.11678 -1.17958,-2.5559 -2.22121,-5.3004 -3.53873,-7.6677 -2.24066,-4.02599 -6.36031,-4.08603 -9.2875,-5.65984 -5.32788,-1.19767 -6.97236,2.89218 -10.30455,9.24476 -2.97257,6.66137 -5.78629,13.53972 -8.99231,19.90287 -3.489,7.10096 -7.4933,13.51281 -11.34858,20.06657 -3.38715,6.55642 -7.30502,12.38275 -11.14437,18.20682 -4.44262,7.2517 -8.15907,15.7367 -13.54823,21.29227 -3.97126,5.39921 -4.52095,6.1503 -5.50014,14.84523 -1.601,13.00395 -2.42158,26.0575 -0.37725,39.11558 1.34094,6.0716 1.76119,9.23798 4.06492,14.59385 0.78812,1.83225 1.77944,3.41456 2.7678,4.96321 3.5059,5.49328 7.23437,10.70667 11.57845,14.31344 6.62524,3.18235 13.38553,5.17412 20.17956,7.14294 z"
         inkscape:label="path13" />
      <path
         style="fill:url(#radialGradient16);fill-opacity:0.733333;stroke:none;stroke-width:10;stroke-linecap:round;stroke-linejoin:bevel;stroke-dasharray:none;stroke-opacity:1;paint-order:stroke fill markers"
         d="m 575.4296,552.09682 c -0.6834,-0.63971 -4.4797,-2.09876 -8.43623,-3.24231 -10.75834,-3.10946 -14.96998,-6.27372 -18.79655,-14.12208 -5.83544,-11.96859 -7.5079,-29.05768 -4.85535,-49.61161 0.92936,-7.20132 2.18888,-10.22867 7.61835,-18.3112 13.74461,-20.4608 30.98355,-50.40975 37.94716,-65.92504 7.14292,-15.91479 8.03423,-17.03912 11.49844,-14.5044 2.43089,1.77865 2.56022,3.72154 2.63455,39.57807 0.0835,40.288 0.5487,44.47571 8.03891,72.3681 2.86279,10.66061 3.22119,14.06216 2.52329,23.94868 -0.86631,12.27223 -2.75873,16.34429 -12.42419,26.73412 -3.81371,4.09951 -4.3202,4.25082 -14.23015,4.25082 -5.65162,0 -10.83483,-0.52342 -11.51823,-1.16315 z"
         id="path16" />
    </g>
    <path
       id="path17"
       clip-path="url(#clipPath19)"
       style="fill:#000000;fill-opacity:0.733333;stroke:none;stroke-width:10;stroke-linecap:round;stroke-linejoin:bevel;stroke-dasharray:none;stroke-opacity:1;paint-order:stroke fill markers"
       d="m 560.29297,637.54492 c -2.69434,0.12212 -5.42328,0.33513 -8.02711,1.05973 -5.38235,2.20797 -9.47289,6.73276 -12.19258,11.77242 -2.49695,4.56868 -4.16188,9.53747 -5.5973,14.524 -1.88826,9.99526 -2.9909,20.14248 -3.20645,30.31377 0.44823,0.61501 0.69519,1.44496 1.26999,1.9248 1.05975,0.54004 2.11949,1.08008 3.17923,1.62013 0.44872,-0.17744 1.35548,-1.08884 1.04252,-0.0955 -0.17187,2.2789 0.54222,4.63195 -0.15971,6.85723 -0.47164,0.81525 -1.45706,1.17471 -2.24464,1.62194 -1.70592,0.90637 -3.83292,1.47052 -4.87059,3.23939 -0.81986,1.45256 0.005,3.25319 1.34911,4.05595 1.21124,0.81352 2.58569,1.4224 4.06414,1.46072 18.01279,2.16185 36.18301,1.1415 54.27345,1.33601 23.57524,-0.20497 47.16666,-0.55033 70.69364,-2.1696 10.62675,-1.07332 21.36193,-2.94998 31.09335,-7.53309 7.19106,-3.36177 13.68983,-8.43229 18.13512,-15.06236 4.33791,-6.08274 8.37107,-12.40936 11.63338,-19.14036 3.52925,-4.14747 6.48024,-9.19845 6.65816,-14.77381 0.0981,-1.68936 -0.24943,-3.35482 -0.54226,-5.00197 -0.23531,-3.50545 -2.3664,-6.73458 -5.3958,-8.47487 -4.03669,-2.39514 -8.93016,-2.83052 -13.51425,-2.32352 -10.66453,0.47994 -20.82349,4.04645 -31.16875,6.33003 -7.50548,2.22233 -15.20613,3.96314 -23.02014,5.01582 -1.87938,0.26152 -3.92239,0.48504 -5.89392,0.66582 -1.13328,0.0929 -2.51515,0.20349 -3.74684,0.27179 -1.64894,0.0967 -3.26974,0.15538 -4.97815,0.18616 -5.89102,0.0707 -11.80798,-0.23096 -17.6221,-1.20758 -9.93533,-2.10864 -18.69544,-7.53505 -28.22499,-10.82476 -4.59365,-1.64145 -9.41634,-2.46525 -14.16313,-3.52636 -6.18488,-1.28904 -12.48429,-2.3184 -18.82338,-2.12191 z m 1.80078,6.1211 c 1.48879,0.032 2.90692,0.0739 4.32728,0.15821 6.23996,0.3389 12.59599,1.27047 18.58874,2.66796 8.62391,2.00738 16.98084,5.12509 24.83419,9.21085 9.77859,4.53894 20.70946,5.95854 31.40511,5.72886 7.0244,-0.14932 14.02736,-0.8976 20.97106,-1.93529 11.01356,-2.17784 21.88522,-5.43489 32.74862,-7.95755 3.70915,-0.83373 7.42856,-1.67867 11.19036,-2.2215 3.94196,-0.16169 7.90497,-0.85 11.8448,-0.32537 0.69315,-0.0578 0.3438,0.82717 0.5743,1.24693 0.61159,2.86411 1.76628,5.69438 1.59553,8.66657 -0.10326,0.99767 -0.8514,1.75551 -1.21371,2.66653 -0.51142,0.95066 -0.9499,1.73196 -1.5126,2.69043 -3.12656,5.29464 -6.66917,10.36864 -9.24066,15.97054 -4.09385,5.52694 -7.53546,11.71289 -12.94941,16.106 -2.42349,1.90331 -5.24728,3.51552 -7.89603,4.87175 -5.21838,2.60767 -10.8092,4.41229 -16.50195,5.64844 -0.59216,0.11399 -1.49205,0.31737 -2.21348,0.44866 -11.05002,2.10986 -22.18833,2.35989 -33.38613,2.77008 -29.08767,0.96546 -58.28524,1.43735 -87.41902,0.84111 -1.95875,-0.0412 -3.91506,-0.15226 -5.87005,-0.27665 2.59256,-3.53082 3.51432,-8.3852 1.97461,-12.53711 -0.71611,-1.21679 -1.99676,-1.96824 -3.29101,-2.44922 -0.63566,-0.20138 -1.33523,-0.23714 -1.96875,-0.008 0.26078,-6.15899 0.51338,-12.17683 1.26064,-18.32816 0.15209,-1.27243 0.34957,-2.5913 0.53819,-3.7988 0.85252,-5.21175 2.16526,-10.37217 4.25585,-15.23242 0.78165,-1.87831 1.78578,-3.86863 2.91211,-5.65039 0.20804,-0.31586 0.63496,-0.97885 0.94935,-1.41102 2.5262,-3.56737 6.10002,-6.80479 10.56975,-7.47098 0.96683,-0.14454 1.9483,-0.16575 2.92231,-0.0906 z" />
    <path
       id="path20"
       style="fill:#000000;fill-opacity:0.733333;stroke:none;stroke-width:10;stroke-linecap:round;stroke-linejoin:bevel;stroke-dasharray:none;stroke-opacity:1;paint-order:stroke fill markers"
       d="m 530.92969,694.41211 c 2.30681,3.27438 4.91486,6.4376 8.33337,8.6057 3.24239,2.31115 6.65998,4.47851 10.49866,5.64821 1.94805,0.65233 3.97285,1.19994 5.85937,1.80078 0.8197,0.25501 1.88707,0.65147 2.81511,0.93213 3.35705,1.07981 6.83956,1.72975 10.16732,2.89599 2.06748,0.56274 4.12633,0.82826 6.18359,1.41797 0.61133,0.27022 1.51075,0.3626 2.23893,0.54956 4.16232,0.74976 8.40703,0.26543 12.60715,0.32686 5.63005,-0.02 11.26016,0.009 16.89025,-10e-4 0.39192,-1.20573 0.78385,-2.41146 1.17578,-3.61719 -1.08647,-0.73852 -2.09746,-1.62508 -3.23119,-2.2709 -1.22421,-0.55435 -2.58634,-0.23954 -3.88561,-0.32089 -7.05789,-0.0128 -14.11594,-0.0107 -21.17303,0.0932 -2.46126,0.0573 -4.88747,-0.3909 -7.25966,-1.0077 -2.84926,-0.60869 -5.64541,-1.42134 -8.44174,-2.23011 -3.00692,-0.80477 -5.93436,-1.48918 -8.87987,-2.56046 -2.79162,-0.9223 -5.56492,-1.58838 -8.29724,-2.69422 -0.52515,-0.20275 -0.95116,-0.44397 -1.34192,-0.80445 -1.56931,-1.01367 -3.19961,-1.99721 -4.36943,-3.49101 -1.22818,-1.34223 -2.19098,-2.91382 -3.36292,-4.28893 -1.04949,-0.92518 -2.48099,-1.20737 -3.71296,-1.82541 -0.62924,-0.4792 -0.86243,0.59762 -1.28781,0.91937 -0.50871,0.64097 -1.01743,1.28195 -1.52615,1.92293 z m 12.66211,10.3125 c -0.33125,-0.19235 0.83977,-1.52783 0.17502,-0.41088 -0.0583,0.13696 -0.11668,0.27392 -0.17502,0.41088 z m 31.20898,10.91992 c -0.24915,-0.39865 0.29296,-1.15405 0.35182,-1.69157 -0.0427,0.26779 -0.24969,1.19186 -0.35182,1.69157 z" />
    <path
       style="fill:#b3b3b3;fill-opacity:0.733333;stroke:#000000;stroke-width:10;stroke-linecap:round;stroke-linejoin:bevel;stroke-dasharray:none;stroke-opacity:1;paint-order:stroke fill markers"
       d="m 568.3237,708.00357 c -17.59186,-4.69046 -22.497,-6.69543 -24.40225,-9.97442 -1.08651,-1.8699 -1.90768,-2.54026 -2.17962,-1.7793 -0.32365,0.90564 -0.72858,0.78623 -1.568,-0.46243 -1.40681,-2.09265 -0.38214,-17.42429 1.79134,-26.80285 2.95592,-12.75482 9.33123,-22.4775 15.93434,-24.30071 4.05271,-1.119 19.03195,0.33859 28.4586,2.76923 4.06952,1.04932 10.93669,3.38751 15.26039,5.19599 15.20447,6.35958 19.58958,7.7083 28.17449,8.66558 13.88664,1.54845 28.05078,-0.10427 52.44091,-6.11898 11.48609,-2.83252 23.99718,-5.34102 28.18181,-5.65052 l 7.52554,-0.55659 1.05141,4.9025 1.0514,4.90251 -5.49173,9.33154 c -13.09343,22.24837 -18.02282,28.00594 -28.0917,32.81137 -14.29658,6.82313 -26.56,8.30923 -73.74387,8.9364 l -35.60693,0.47329 z"
       id="path29" />
  </g>
</svg>
