<?xml version="1.0" encoding="UTF-8" standalone="no"?>
<!-- Created with Inkscape (http://www.inkscape.org/) -->

<svg
   width="187.44778"
   height="336.87064"
   viewBox="0 0 187.44778 336.87065"
   version="1.1"
   id="svg1"
   inkscape:version="1.3.2 (091e20e, 2023-11-25, custom)"
   sodipodi:docname="death1.svg"
   xmlns:inkscape="http://www.inkscape.org/namespaces/inkscape"
   xmlns:sodipodi="http://sodipodi.sourceforge.net/DTD/sodipodi-0.dtd"
   xmlns:xlink="http://www.w3.org/1999/xlink"
   xmlns="http://www.w3.org/2000/svg"
   xmlns:svg="http://www.w3.org/2000/svg">
  <sodipodi:namedview
     id="namedview1"
     pagecolor="#ffffff"
     bordercolor="#000000"
     borderopacity="0.25"
     inkscape:showpageshadow="2"
     inkscape:pageopacity="0.0"
     inkscape:pagecheckerboard="false"
     inkscape:deskcolor="#3d3d3d"
     inkscape:document-units="px"
     inkscape:zoom="1.08125"
     inkscape:cx="421.27168"
     inkscape:cy="529.47977"
     inkscape:window-width="1366"
     inkscape:window-height="715"
     inkscape:window-x="1358"
     inkscape:window-y="-8"
     inkscape:window-maximized="1"
     inkscape:current-layer="layer1" />
  <defs
     id="defs1">
    <linearGradient
       id="linearGradient16"
       inkscape:collect="always">
      <stop
         style="stop-color:#101010;stop-opacity:1;"
         offset="0.51193637"
         id="stop17" />
      <stop
         style="stop-color:#313131;stop-opacity:0.86666667;"
         offset="1"
         id="stop18" />
    </linearGradient>
    <linearGradient
       id="linearGradient15"
       inkscape:collect="always">
      <stop
         style="stop-color:#000000;stop-opacity:1;"
         offset="0.65517241"
         id="stop15" />
      <stop
         style="stop-color:#000000;stop-opacity:0;"
         offset="1"
         id="stop16" />
    </linearGradient>
    <radialGradient
       inkscape:collect="always"
       xlink:href="#linearGradient15"
       id="radialGradient16"
       cx="580.11572"
       cy="595.35681"
       fx="580.11572"
       fy="595.35681"
       r="71.153908"
       gradientTransform="matrix(0.34205368,0,0,0.60670658,238.92836,104.78554)"
       gradientUnits="userSpaceOnUse" />
    <linearGradient
       inkscape:collect="always"
       xlink:href="#linearGradient16"
       id="linearGradient18"
       x1="565.18805"
       y1="407.81079"
       x2="512.14594"
       y2="1340.0652"
       gradientUnits="userSpaceOnUse"
       gradientTransform="matrix(0.33392093,0.07414535,-0.07421806,0.3342484,280.75708,239.08653)" />
  </defs>
  <g
     inkscape:label="Layer 1"
     inkscape:groupmode="layer"
     id="layer1"
     transform="translate(-313.64206,-399.28346)">
    <path
       style="fill:url(#linearGradient18);fill-opacity:1;stroke:#000000;stroke-width:9.99995;stroke-linecap:round;stroke-linejoin:bevel;stroke-dasharray:none;stroke-opacity:1;paint-order:stroke fill markers"
       d="m 351.03535,727.99607 c 0.20619,-2.16594 1.01842,-7.95979 1.80499,-12.87526 1.66642,-10.41403 1.79782,-15.55167 0.43181,-16.88294 -1.51241,-1.4739 -2.64327,0.31179 -4.12282,6.51006 -0.74347,3.11486 -2.04904,7.57285 -2.90118,9.90666 l -1.54933,4.24329 -1.68571,-3.63592 c -3.84357,-8.29029 -3.8959,-14.93624 -0.30641,-38.93594 3.5133,-23.49042 3.38519,-30.88128 -0.55178,-31.83487 -1.46386,-0.35444 -4.54925,5.50464 -9.73641,18.48937 -7.70039,19.27595 -13.37343,32.48425 -13.71888,31.941 -0.16401,-0.25794 0.0351,-4.66805 0.44248,-9.80025 0.40736,-5.13216 0.78804,-12.21487 0.84596,-15.73936 0.27624,-16.81333 2.78144,-32.17406 10.32609,-63.31511 12.95069,-53.45472 15.97941,-61.09615 29.40304,-74.1836 9.27774,-9.04537 17.73079,-19.79806 22.42966,-28.53161 3.10209,-5.76568 3.81102,-8.04265 5.87797,-18.87905 1.29274,-6.77744 -6.95162,-27.20267 -4.24507,-38.20463 l 4.5908,-18.66126 6.20386,-10.3281 c 4.16647,-6.93628 9.76503,-6.82962 16.52333,-8.52154 5.42074,-1.35707 18.60317,-1.52487 26.21976,0.18289 16.7055,3.74563 28.71693,12.22726 32.65315,18.74997 2.60442,4.31578 10.12473,17.90285 10.69977,35.66262 0.30478,9.41281 -8.52491,10.9596 -15.41755,42.85545 -5.69449,26.35143 -7.04676,33.92131 -7.25153,40.59322 -0.347,11.30749 1.2196,18.23936 5.29087,23.41091 7.33501,9.31733 7.34071,9.47306 1.31911,36.11542 l -4.64506,20.55226 -5.08439,6.81157 c -11.55453,15.47958 -23.45071,29.8285 -31.18011,37.60875 -9.18372,9.24415 -37.15057,34.69905 -38.36183,34.91623 -0.4295,0.077 -1.5759,1.26748 -2.54754,2.64546 -0.97165,1.378 -4.2554,4.98053 -7.29724,8.0056 -4.48226,4.45758 -5.71868,5.25743 -6.52267,4.21956 -0.54562,-0.70435 -2.07733,-1.38859 -3.40383,-1.5205 -1.93786,-0.19275 -3.35529,0.81262 -7.2133,5.11623 -6.96091,7.76491 -7.77895,8.1352 -7.31996,3.31343 z"
       id="path13"
       inkscape:export-filename="..\infiernogato\death\death.svg"
       inkscape:export-xdpi="96"
       inkscape:export-ydpi="96"
       sodipodi:nodetypes="ssssscsssssssssssscssssssssscssssssssss" />
    <path
       id="path1"
       style="color:#000000;display:none;fill:#000000;stroke-width:0.999995;stroke-linecap:round;stroke-linejoin:bevel;-inkscape-stroke:none;paint-order:stroke fill markers"
       d="m 453.7814,399.90715 -1.2e-4,6.8e-4 c -3.23559,-0.49344 -6.40857,-0.86777 -9.88263,-0.43229 -1.74697,0.219 -3.29055,0.7126 -4.70828,1.02274 l -0.31944,0.10419 c -3.94597,1.72451 -6.09327,2.38726 -9.79665,5.29066 -4.84243,3.7964 -8.84817,9.01846 -11.18213,14.73407 -0.84918,2.07956 -1.28207,4.14589 -1.85246,6.00072 l -0.0419,0.1651 c -2.57848,12.80423 -4.4524,25.74589 -5.66842,38.74675 -0.23893,2.53098 -0.71777,8.03915 -1.11923,10.41958 -1.28525,7.62101 -4.40066,14.79442 -8.38491,21.53083 -1.53341,2.41027 -2.9363,4.82416 -4.4889,7.05221 -5.62131,8.06676 -12.40834,15.17759 -19.43042,22.21371 l -0.49102,0.11958 c -2.86481,6.17255 -5.8289,12.35402 -8.38165,18.76336 l -0.0392,0.10786 c -0.33211,1.02927 -0.7203,2.1023 -1.0492,3.25477 -1.03758,3.6358 -1.75304,7.30423 -2.55491,10.86294 -0.60237,2.67337 -1.23583,5.35051 -1.85053,8.04263 l -8.7e-4,0.005 c -1.55258,6.88462 -2.81064,13.81016 -4.00254,20.72657 -1.49221,8.30183 -3.3317,16.57769 -4.94113,24.93973 -1.37747,6.75402 -2.46658,13.56457 -3.06664,20.46436 -0.66133,7.49884 -1.06135,15.02183 -1.26706,22.53588 l -0.001,0.0467 c -2e-4,5.72021 0.35868,11.33522 0.22632,16.88085 -0.30336,3.94336 -0.38684,7.849 -0.58465,11.69879 -0.16131,3.13913 -0.2003,1.61161 -0.036,4.29548 l 0.043,0.28862 c 0.007,0.0301 0.0976,0.91631 0.54769,1.80362 0.22503,0.44366 0.59302,1.00538 1.33024,1.34076 0.73724,0.33534 1.68166,0.21827 2.34525,-0.12628 0.93122,-0.48348 1.37836,-1.30488 1.63477,-1.90279 0.2564,-0.59792 0.39733,-1.08768 0.50404,-1.31493 0.7047,-1.50089 1.25374,-2.99659 1.82708,-4.40626 2.69667,-6.63042 2.06674,-5.11081 4.67193,-12.21672 l 0.009,-0.0234 c 2.72607,-7.1178 4.77394,-14.37688 7.27403,-21.38082 0.98984,-2.77303 2.83335,-7.57316 4.20715,-10.22476 0.11071,-0.21377 0.31002,-0.48755 0.44828,-0.71098 0.0915,0.96477 0.19804,1.97085 0.22713,2.77258 0.18772,5.17637 -0.0558,7.25912 -0.34642,12.68365 -0.7704,11.00052 -2.83423,22.08447 -2.96771,33.45905 -0.0452,3.8489 0.18643,4.98891 0.60527,8.4151 l 0.0182,0.11655 c 0.57281,2.96888 1.77984,5.66813 3.09344,8.17403 0.63987,1.2206 1.46414,2.76811 2.72444,3.9949 0.74718,0.7274 1.49531,1.22247 2.06601,1.68574 l 1.08605,0.38201 c -0.22938,0.001 -0.13744,-4.6e-4 0.15221,0.0409 0.28961,0.0417 1.02645,0.10282 1.67973,-0.42703 0.8915,-0.72335 0.99738,-1.35903 1.26708,-2.11123 0.26974,-0.75234 0.49813,-1.59839 0.70106,-2.43798 0.0919,-0.38047 0.0965,-0.47127 0.17745,-0.84129 -0.40826,3.26832 -0.8433,6.56202 -1.14493,9.9011 -0.29435,3.25859 -0.28663,2.38898 -0.11156,5.04331 l 0.16749,0.63432 c -0.0178,-0.0368 -0.0247,0.7443 0.90812,1.5817 0.65501,0.58813 1.51,1.28608 2.72931,1.57397 1.44282,0.34034 2.22145,-0.4466 2.44958,-0.56628 2.39389,-1.25556 3.64431,-3.4805 4.75153,-4.96522 l 6.7e-4,1.2e-4 c 1.52128,-1.95599 3.01088,-3.86664 4.6304,-5.61246 0.2084,-0.22467 0.57308,-0.6232 0.9498,-1.00252 0.3767,-0.37931 0.85593,-0.76211 0.8106,-0.73496 -0.0343,0.0204 0.24891,-0.079 0.40743,-0.13017 0.44954,-0.0353 0.67658,-0.0422 0.88235,-0.003 6.2e-4,4.3e-4 0.002,2.8e-4 10e-4,0.003 0.0181,0.0136 0.0108,0.011 0.0258,0.0229 0.0312,0.0543 0.0464,0.0843 0.16068,0.26717 l 0.0223,0.0353 c 0.11969,0.1816 0.27642,0.3878 0.45711,0.59957 -0.71899,0.5317 -1.43753,1.04519 -2.2625,1.67654 l -0.088,2.64739 0.9646,0.84614 2.16383,0.0727 c 1.97331,-1.5064 4.5191,-2.88608 6.2252,-5.67147 l -0.0941,0.13829 c 0.38742,-0.51255 0.62953,-0.83104 0.90779,-1.19996 0.33075,-0.33124 0.59679,-0.6092 0.64408,-0.65559 l 0.0393,-0.0386 c 2.341,-2.44854 4.74902,-4.98831 6.90692,-7.7788 1.96617,-2.29761 3.89181,-4.58096 5.93582,-6.65102 l 0.002,-0.003 c 6.8e-4,1.2e-4 0.002,-0.003 0.002,-0.003 10.90597,-10.94962 22.51938,-21.34754 32.98111,-32.99294 l 0.0197,-0.0229 c 4.96494,-5.728 10.09992,-11.35612 14.95533,-17.29707 l 0.0519,-0.0676 c 3.63668,-4.92976 6.36579,-10.21158 10.02822,-14.6018 l 0.0799,-0.10344 c 0.11735,-0.16483 1.05151,-1.47575 1.9927,-2.79864 0.94119,-1.32285 1.83123,-2.57241 2.06491,-2.91636 0.68574,-1.00942 1.24593,-1.98463 1.83701,-2.81984 1.36834,-1.93346 3.0922,-3.83469 4.5264,-6.1447 l 0.0845,-0.15287 c 0.84629,-1.73625 1.22158,-2.35295 1.83976,-4.33546 0.9066,-2.9075 1.12364,-5.77093 1.65246,-8.35573 l 0.009,-0.0486 c 0.83091,-4.75925 1.67293,-9.51245 2.56216,-14.2523 l 10e-4,-0.002 c 1.01811,-5.45886 2.15281,-10.9884 2.66785,-16.67185 l 0.006,-0.0852 c 0.16577,-4.05706 0.44781,-8.74082 -2.55615,-12.72508 l -5.4e-4,-7.9e-4 c -3.08381,-4.10325 -6.85174,-7.06279 -8.26165,-11.18342 -0.32611,-1.06809 -0.6788,-2.02383 -0.88458,-2.90288 -1.11066,-4.74467 -1.18799,-9.6743 -1.10348,-14.73043 0.0385,-2.30522 0.0535,-4.56722 0.22434,-6.77247 0.1806,-2.33178 0.56266,-4.71475 0.85677,-7.17615 1.61603,-10.58692 3.52989,-21.1279 5.66025,-31.63286 l 0.002,-0.009 c 1.89995,-9.6153 3.93303,-19.43408 3.69183,-29.5564 l -2.6e-4,-0.0333 c -0.27235,-6.28687 -0.69208,-12.50478 -1.4372,-18.7859 -0.0524,-0.44189 -0.32761,-2.72047 -0.63098,-5.10229 -0.30337,-2.38182 -0.60721,-4.74008 -0.80661,-5.74823 -0.2973,-1.50319 -0.74038,-2.87162 -1.07452,-4.16303 l -0.0933,-0.26827 c -1.18242,-2.65451 -1.66438,-4.37757 -4.00515,-6.75067 -5.18042,-5.25199 -11.8843,-8.18673 -18.33688,-10.62227 l -0.0825,-0.0287 c -5.98684,-1.91814 -11.97755,-3.81732 -18.37739,-4.79317 z m 0.35954,4.28338 c 6.03426,0.92943 11.82076,2.74966 17.77179,4.66114 5.0714,2.11413 11.81391,4.62438 15.10475,8.21052 2.19649,2.39359 1.97872,2.59619 3.33003,5.60771 0.36328,1.36046 0.76845,2.62457 1.00918,3.82027 0.1183,0.58759 0.47641,3.15062 0.78175,5.51097 0.30534,2.36035 0.58494,4.64523 0.63587,5.07055 0.7372,6.1556 1.15029,12.27473 1.41808,18.49672 0.22916,9.59396 -1.71237,19.15068 -3.61841,28.76678 -2.15342,10.56252 -4.0537,21.17414 -5.6757,31.83315 l -0.007,0.0536 c -0.28483,2.38082 -0.67989,4.82149 -0.87807,7.35166 -0.18553,2.36889 -0.20229,4.70234 -0.24342,6.98571 -0.0923,5.12624 -0.0406,10.35192 1.15963,15.57402 0.27143,1.18095 0.65758,2.2185 0.94135,3.17082 l 0.0186,0.0603 c 1.80338,5.32809 5.99343,8.59294 8.74617,12.19112 2.16241,2.82625 2.07172,6.35945 1.91621,10.39946 -0.47909,5.41144 -1.5826,10.81899 -2.60543,16.30057 -0.89321,4.7608 -1.73938,9.526 -2.57582,14.28792 l 0.009,-0.0473 c -0.58604,2.86062 -0.80937,5.59903 -1.55893,8.01979 -0.54424,1.75764 -0.76424,2.05515 -1.5776,3.71879 -1.21004,1.94022 -2.85485,3.77862 -4.36326,5.91464 -0.71894,1.01809 -1.28859,2.01781 -1.87691,2.88482 -0.0176,0.0257 -1.06747,1.51081 -2.02384,2.85631 -0.95638,1.34554 -1.90013,2.67188 -1.98628,2.79299 l 0.0809,-0.10528 c -3.97322,4.75905 -6.73269,10.09426 -10.13633,14.73084 -4.75844,5.82284 -9.85173,11.4071 -14.8257,17.16908 -10.26891,11.48001 -21.83534,21.83724 -32.84259,32.86446 l -0.004,0.004 c -0.27148,0.27385 -0.49821,0.56696 -0.76269,0.84453 l -2.02091,0.46969 c -0.12394,0.26138 -0.24755,0.52208 -0.37146,0.78351 -0.69648,1.31708 -1.11796,2.17931 -1.92497,3.33264 -0.34741,0.49652 -0.72969,0.97664 -1.10216,1.46123 -1.01104,1.17886 -2.01338,2.37454 -3.0579,3.48081 -0.65437,0.69302 -1.45138,1.39645 -2.2477,2.24947 -0.95564,1.02367 -1.55967,1.77792 -2.16802,2.57239 -0.17563,0.17376 -0.28692,0.28769 -0.48613,0.4782 -0.51798,0.49541 -1.11687,1.00084 -1.26917,1.10263 -0.46328,-0.54813 -0.98343,-1.04617 -1.61618,-1.42755 -1.12409,-0.67756 -2.54539,-0.95701 -3.99943,-0.70573 l -0.32723,0.0906 c -0.15681,0.0608 -0.65031,0.13279 -1.31495,0.53991 -0.63195,0.38712 -1.02693,0.81535 -1.46973,1.26365 -0.44279,0.44833 -0.84681,0.89286 -1.03396,1.09571 -1.7499,1.89654 -3.29628,3.89248 -4.82255,5.84558 l -0.0201,0.0256 c -0.86329,1.14943 -1.87822,2.57449 -2.67989,3.30949 -0.16685,0.15295 -0.0992,0.0894 -0.23646,0.2111 -0.0231,2e-5 -0.0459,10e-4 -0.0674,0.002 -0.0195,-0.46218 0.0199,-0.88001 0.19478,-2.88867 0.55492,-6.37394 1.68009,-12.79322 2.10986,-19.40266 l 0.003,-0.0707 c 0.0327,-1.39437 0.13802,-2.86874 0.10178,-4.42311 -0.0258,-1.10615 0.0136,-2.14409 -0.28752,-3.29441 -0.13187,-0.50379 -0.38115,-1.0018 -0.6776,-1.48833 -0.009,-0.0372 0.009,-0.0768 -0.003,-0.11315 -0.10213,-0.31537 -0.38913,-0.78742 -0.87219,-1.04039 -0.0391,-0.0204 -0.0751,-0.0132 -0.11398,-0.0308 -0.18547,-0.18837 -0.31028,-0.39822 -0.52531,-0.5742 -0.47626,-0.38977 -1.33369,-0.47529 -1.7888,-0.31992 -0.45523,0.15614 -0.65688,0.36179 -0.81488,0.51967 -0.31602,0.31582 -0.4398,0.54717 -0.55435,0.75889 -0.50364,0.93101 -0.79039,2.01049 -1.07539,3.09471 -0.28503,1.08416 -0.51823,2.13943 -0.6246,2.56273 l -0.0113,0.0529 c -1.41472,6.49354 -0.41157,1.92058 -1.86461,8.45158 -0.13773,0.61894 -0.37309,2.04554 -0.73001,3.56945 -0.10998,0.46949 -0.23258,0.85174 -0.35248,1.26686 -1.74003,-2.61989 -2.96405,-5.72939 -3.74661,-8.86232 -0.42905,-3.3424 -0.63395,-4.2051 -0.60433,-7.84054 0.0894,-10.97962 2.12892,-21.99602 2.95534,-33.24938 l 0.002,-0.0309 c 0.30092,-5.42991 0.55346,-7.65315 0.38581,-13.00874 -0.04,-1.27623 0.0819,-2.83354 -0.36862,-4.52939 -0.18701,-0.70402 -0.46312,-1.35221 -0.77453,-1.96428 -0.0144,-0.44199 -0.0857,-0.95039 -0.52504,-1.50362 -0.2205,-0.2776 -0.53039,-0.46718 -0.86143,-0.61078 -0.2206,-0.26017 -0.43776,-0.51594 -0.77451,-0.71571 -0.43879,-0.26032 -1.07384,-0.50038 -1.84402,-0.33367 -0.82578,0.17859 -1.31008,0.70352 -1.57204,1.01558 -0.26196,0.31209 -0.40422,0.49611 -0.38263,0.47602 l -0.28873,0.3506 c -0.50595,0.8157 -1.16751,1.70276 -1.73243,2.80356 -1.53897,2.99877 -3.37366,7.85929 -4.37502,10.67128 -2.54866,7.15706 -4.59466,14.39471 -7.25563,21.32227 l -0.008,0.0223 c -2.27184,6.17165 -2.35659,6.45953 -4.04473,10.59411 0.097,-2.40157 0.17071,-4.82166 0.35825,-7.18009 l 0.005,-0.0922 c 0.0413,-1.61895 0.11985,-3.7037 0.0756,-5.44541 -0.0993,-3.90918 -0.38165,-7.73623 -0.31091,-11.48863 2.3e-4,-0.003 -2.6e-4,-0.003 -9.3e-4,-0.006 0.1987,-7.44557 0.60455,-14.89096 1.25767,-22.3046 l 5.2e-4,-0.003 c 0.58059,-6.73531 1.64522,-13.4156 2.99179,-20.07628 l 0.003,-0.0171 c 1.59268,-8.30579 3.44236,-16.60009 4.97084,-24.99696 l 0.003,-0.0178 c 1.17957,-6.89771 2.41947,-13.76769 3.95176,-20.55693 l -0.002,0.005 c 0.61082,-2.67418 1.24623,-5.35386 1.85532,-8.05062 0.81719,-3.61811 1.52471,-7.21804 2.5052,-10.66459 0.27825,-0.97815 0.63982,-1.99327 0.98627,-3.0662 2.31413,-5.82953 5.00903,-11.53709 7.72171,-17.26733 7.16574,-7.21709 14.22438,-14.59981 20.14786,-23.09811 1.67044,-2.39654 3.10528,-4.86573 4.60078,-7.21047 l 0.0295,-0.0485 c 4.13999,-6.98598 7.47897,-14.54955 8.86919,-22.73314 0.48089,-2.83015 0.91709,-8.12914 1.1579,-10.68641 l -3.3e-4,-0.002 c 1.19152,-12.86547 3.04592,-25.66663 5.59295,-38.32817 0.60896,-2.00392 1.03214,-3.92271 1.71181,-5.5895 2.07819,-5.0964 5.73917,-9.88099 10.08397,-13.2803 3.35368,-2.62387 4.95836,-3.05162 8.89154,-4.75151 1.53686,-0.33992 2.92529,-0.75152 4.20367,-0.9069 2.95993,-0.35979 5.77662,-0.0375 8.91572,0.44595 z" />
    <path
       style="display:inline;fill:url(#radialGradient16);stroke:#000000;stroke-width:5.00002;stroke-linecap:round;stroke-linejoin:bevel;stroke-opacity:1;paint-order:stroke fill markers"
       d="m 442.55459,506.42023 c -5.29948,-4.24426 -17.19664,-16.60373 -20.69661,-21.50084 -3.25055,-4.54814 -5.44164,-10.21416 -7.25003,-18.7482 -0.63049,-2.97531 -0.72519,-4.34091 -0.73111,-10.54289 -0.007,-7.03426 0.004,-7.15008 0.8425,-9.1077 2.61871,-6.11377 6.50635,-10.03598 17.34083,-17.495 5.25359,-3.61684 8.17665,-5.06159 10.70511,-5.29109 2.96737,-0.26933 4.70925,0.30778 6.71338,2.22425 2.26526,2.16616 3.65394,4.3204 5.75583,8.92893 3.73508,8.1894 4.59579,10.71704 5.2834,15.51571 0.62333,4.35009 0.24407,18.17321 -0.6465,23.56288 -0.93946,5.68555 -2.95933,13.24825 -4.2786,16.01967 -1.92016,4.03374 -7.32881,13.85246 -9.0222,16.3787 l -1.42712,2.12898 z"
       id="path15" />
    <path
       style="display:inline;fill:#4d4d4d;fill-opacity:1;stroke:#000000;stroke-width:15;stroke-linecap:round;stroke-linejoin:bevel;stroke-dasharray:none;stroke-opacity:1;paint-order:stroke fill markers"
       id="path14"
       d="m 445.95861,510.20627 c -0.19249,-0.0947 -0.38773,-0.18388 -0.57745,-0.28396 -0.0994,-0.0524 0.39445,0.21057 0.30626,0.1409 -0.31464,-0.24854 -0.66452,-0.44893 -0.99093,-0.68174 -1.09427,-0.78047 -2.31354,-1.69171 -3.32009,-2.55014 -0.75084,-0.64035 -1.46403,-1.32367 -2.19605,-1.98551 -5.38353,-4.85912 -10.40184,-10.11051 -15.17358,-15.56825 -2.0379,-2.35543 -3.9544,-4.85097 -5.42384,-7.6085 -0.63669,-1.19481 -1.18501,-2.49375 -1.73249,-3.73014 -1.54753,-3.9634 -2.5167,-8.1382 -3.37933,-12.29696 -0.85859,-4.68404 -0.81119,-9.4545 -0.73147,-14.1953 0.0332,-0.6029 0.004,-1.21252 0.0996,-1.80871 0.479,-2.98863 1.95974,-6.05001 3.65747,-8.52576 0.4079,-0.59482 0.87175,-1.14917 1.30763,-1.72375 3.7126,-4.12233 8.20687,-7.43497 12.75114,-10.57404 2.09031,-1.1445 3.8666,-2.79351 5.93296,-3.97139 0.60961,-0.34749 1.73891,-0.84086 2.38345,-1.13238 1.9297,-1.00931 3.87454,-1.1077 5.99496,-1.08013 0.30952,0.0535 0.62042,0.0995 0.92856,0.16049 1.01762,0.20131 2.48229,0.62273 3.33242,1.2241 0.0594,0.0421 -0.1451,0.0129 -0.21765,0.0194 1.35248,1.13271 0.32133,0.22963 1.53132,1.39144 0.24613,0.23634 0.51697,0.44748 0.74956,0.69719 0.81354,0.87338 1.48059,1.91676 2.17368,2.88359 1.38712,2.12501 2.30825,4.49375 3.42109,6.76323 0.55397,1.01581 0.9106,2.11422 1.33623,3.18376 0.50721,1.27453 1.07887,2.52609 1.60029,3.79528 1.15007,3.06719 1.73289,6.2986 2.00578,9.55205 0.13954,3.27653 0.0355,6.55838 -5e-5,9.83649 -0.0302,3.55432 -0.19019,7.11748 -0.66519,10.64156 -0.28832,1.83534 -0.58459,3.67708 -0.99322,5.49034 -0.15962,0.70834 -0.36999,1.40428 -0.54716,2.10843 -0.536,2.11247 -0.90898,4.25989 -1.45181,6.37051 -0.0934,0.30349 -0.16439,0.61484 -0.28026,0.91048 -0.11724,0.29913 -0.28308,0.57689 -0.41712,0.86887 -0.52071,1.1343 -1.02931,2.27607 -1.50191,3.43129 -0.12799,0.26547 -0.24339,0.53739 -0.38395,0.7964 -0.60576,1.11621 -0.28652,0.37819 -0.91697,1.44911 -0.66001,1.12113 -1.25721,2.28645 -1.90311,3.41661 -0.85218,1.69101 -1.74804,3.36155 -2.65224,5.02529 -0.71177,1.36369 -1.50182,2.69962 -2.37343,3.96839 -0.8208,1.10977 -1.52229,2.31115 -2.41341,3.36757 0,0 1.10271,0.6629 1.10271,0.6629 v 0 c 0.88239,-1.06855 1.58652,-2.27125 2.41508,-3.38064 0.87279,-1.27329 1.66514,-2.61309 2.38372,-3.97806 0.89836,-1.66595 1.78419,-3.34069 2.63786,-5.03003 0.64667,-1.12669 1.24618,-2.28737 1.90767,-3.40471 0.59216,-1.00024 0.35649,-0.41709 0.92486,-1.46427 0.14183,-0.26131 0.25843,-0.53555 0.38765,-0.80333 0.47111,-1.15296 0.97621,-2.29384 1.49706,-3.42519 0.13702,-0.29761 0.30677,-0.58054 0.4267,-0.88547 0.11697,-0.29739 0.188,-0.61088 0.282,-0.91632 0.544,-2.11075 0.91487,-4.25878 1.45165,-6.37148 0.17704,-0.70698 0.38842,-1.4055 0.54816,-2.1166 0.40801,-1.81621 0.70218,-3.66153 0.98932,-5.49982 0.47847,-3.52821 0.64072,-7.09699 0.67172,-10.65584 0.0341,-3.28106 0.14521,-6.56552 0.009,-9.84513 -0.26599,-3.26367 -0.85374,-6.50335 -1.98627,-9.58604 -0.52024,-1.26774 -1.09675,-2.51663 -1.60147,-3.79003 -0.42511,-1.07254 -0.76853,-2.17934 -1.32924,-3.19573 -0.15496,-0.31499 -0.93452,-1.89258 -1.06805,-2.19288 -0.17304,-0.38915 -0.30476,-0.79611 -0.48347,-1.18269 -0.54194,-1.17231 -1.19379,-2.30542 -1.86297,-3.40767 -0.69006,-0.96669 -1.3527,-2.02869 -2.15918,-2.90557 -0.23052,-0.25064 -0.50605,-0.4559 -0.75106,-0.69236 -1.33405,-1.28754 -0.0373,-0.146 -1.52592,-1.40901 -0.65528,-0.43022 -1.29601,-0.8835 -1.96584,-1.29066 -1.30043,-0.79045 -2.80573,-1.13908 -4.29534,-1.3376 -2.17177,-0.0205 -4.04452,0.1028 -6.02353,1.12815 -0.68845,0.31358 -1.74048,0.77388 -2.39225,1.14913 -2.06009,1.18608 -3.83344,2.83399 -5.91834,3.98549 -4.547,3.15821 -9.05441,6.47379 -12.77817,10.60411 -0.43712,0.57835 -0.90215,1.13657 -1.31134,1.73504 -1.67724,2.45306 -3.21266,5.62189 -3.69521,8.5772 -0.0976,0.59788 -0.0656,1.20985 -0.0984,1.81478 -0.0754,4.75022 -0.12369,9.52952 0.7273,14.22412 0.85638,4.16501 1.81612,8.347 3.35984,12.31732 0.53373,1.21047 1.10852,2.57227 1.72772,3.74294 1.4651,2.77001 3.38394,5.27578 5.42856,7.6371 4.77228,5.4587 9.7916,10.71099 15.16647,15.58087 2.74042,2.49507 5.58326,4.99607 8.94412,6.62919 z" />
  </g>
</svg>
