<?xml version="1.0" encoding="UTF-8" standalone="no"?>
<!-- Created with Inkscape (http://www.inkscape.org/) -->

<svg
   width="822.49469"
   height="506.56317"
   viewBox="0 0 822.49469 506.5632"
   version="1.1"
   id="svg1"
   inkscape:version="1.3.2 (091e20e, 2023-11-25, custom)"
   sodipodi:docname="scythe.svg"
   xmlns:inkscape="http://www.inkscape.org/namespaces/inkscape"
   xmlns:sodipodi="http://sodipodi.sourceforge.net/DTD/sodipodi-0.dtd"
   xmlns:xlink="http://www.w3.org/1999/xlink"
   xmlns="http://www.w3.org/2000/svg"
   xmlns:svg="http://www.w3.org/2000/svg">
  <sodipodi:namedview
     id="namedview1"
     pagecolor="#ffffff"
     bordercolor="#000000"
     borderopacity="0.25"
     inkscape:showpageshadow="2"
     inkscape:pageopacity="0.0"
     inkscape:pagecheckerboard="false"
     inkscape:deskcolor="#3d3d3d"
     inkscape:document-units="px"
     inkscape:zoom="0.540625"
     inkscape:cx="698.2659"
     inkscape:cy="775.95376"
     inkscape:window-width="1366"
     inkscape:window-height="715"
     inkscape:window-x="1358"
     inkscape:window-y="-8"
     inkscape:window-maximized="1"
     inkscape:current-layer="layer1" />
  <defs
     id="defs1">
    <linearGradient
       id="linearGradient6"
       inkscape:collect="always">
      <stop
         style="stop-color:#a09692;stop-opacity:1;"
         offset="0"
         id="stop6" />
      <stop
         style="stop-color:#2e2a29;stop-opacity:0.69230771;"
         offset="1"
         id="stop7" />
    </linearGradient>
    <linearGradient
       inkscape:collect="always"
       xlink:href="#linearGradient6"
       id="linearGradient7"
       x1="919.48401"
       y1="660.51135"
       x2="565.03143"
       y2="712.82904"
       gradientUnits="userSpaceOnUse" />
  </defs>
  <g
     inkscape:label="Layer 1"
     inkscape:groupmode="layer"
     id="layer1"
     transform="translate(-104.6808,-475.77131)">
    <path
       style="fill:#000000;fill-opacity:1;stroke-width:19.1;stroke-linecap:round;stroke-linejoin:bevel;paint-order:stroke fill markers"
       id="path1"
       d="m 121.29542,982.33448 c 7.11356,-22.34765 19.00904,-43.23735 31.00356,-63.22353 22.07753,-36.78726 42.68115,-67.55494 69.38284,-101.79602 16.83711,-21.59117 34.9663,-42.14292 52.44945,-63.21438 56.41471,-63.41621 119.17045,-120.73073 188.64179,-169.55998 31.41462,-22.08036 68.98463,-45.41819 104.82567,-60.64736 12.9045,-5.48324 26.62972,-8.78783 39.94458,-13.18174 28.74592,-7.17402 57.40179,-6.33918 86.36098,-1.72794 6.38949,1.01742 12.68364,2.56287 19.02546,3.8443 0,0 -14.60212,-11.04921 -14.60212,-11.04921 v 0 c -6.327,-1.21386 -12.60905,-2.69142 -18.98099,-3.64157 -29.02898,-4.32867 -57.69917,-4.82473 -86.38626,2.6846 -13.26601,4.52963 -26.94812,7.98672 -39.79804,13.58888 -35.49804,15.47603 -73.21063,39.27501 -104.31234,61.33737 -69.33014,49.18012 -132.15264,106.55759 -188.77602,169.91235 -17.61672,21.03405 -35.86186,41.55736 -52.85016,63.10215 -26.70271,33.86472 -47.96812,65.10872 -70.32046,101.47928 -12.32626,20.05665 -24.4621,40.92622 -32.22256,63.27864 z" />
    <path
       style="fill:#000000;fill-opacity:1;stroke-width:19.1;stroke-linecap:round;stroke-linejoin:bevel;paint-order:stroke fill markers"
       id="path2"
       d="m 512.38984,486.85547 c 20.76105,-0.38962 40.32828,7.08105 59.54352,13.97063 17.88552,6.13192 35.01756,14.04102 51.69569,22.89434 11.38834,6.04532 23.59282,15.58159 33.99464,23.16142 31.39132,22.39462 58.58013,50.02966 84.78447,78.15168 39.6345,41.9392 67.68843,92.48617 96.39524,142.05747 11.66313,20.30654 21.98537,41.30489 32.16563,62.37337 4.96391,10.27303 7.31686,14.18325 11.08306,24.40365 1.33526,3.62351 2.39138,7.34386 3.58707,11.0158 7.23269,22.13384 13.70754,44.47433 20.28906,66.81108 2.13892,7.88388 2.11875,7.23947 3.6048,14.67482 0.27451,1.3735 0.75662,2.73758 0.73054,4.13801 -0.005,0.28425 -1.07065,0.14064 -0.81244,0.25963 3.81761,1.75931 8.28912,7.23107 11.68188,4.74944 2.91722,-2.1338 -5.06281,-5.15957 -7.59421,-7.73935 -22.59793,-27.59963 -43.7823,-56.32751 -65.8354,-84.35901 -19.0401,-24.20171 -33.34442,-41.45711 -52.85124,-65.30504 -43.45533,-50.24559 -86.13733,-101.54578 -134.30644,-147.44197 -8.80789,-8.39229 -18.0121,-16.35856 -27.01815,-24.53784 -40.18586,-34.72316 -84.74249,-64.0996 -132.78031,-86.8432 -7.82762,-3.70601 -15.88103,-6.915 -23.82155,-10.3725 -7.3483,-2.97045 -14.67274,-6.00065 -22.04491,-8.91135 -15.21067,-6.00552 -21.12175,-8.46078 -36.38637,-12.73737 -11.77411,-3.29867 -23.83496,-5.75613 -35.8442,-8.02229 -3.93307,-0.20361 -7.66424,-1.08911 -11.37248,-2.3007 0,0 14.92003,11.50176 14.92003,11.50176 v 0 c 3.71802,0.96001 7.48972,1.64289 11.31658,2.02885 11.9054,2.2577 23.83992,4.70778 35.50139,8.03173 19.9264,5.67976 38.95227,13.85575 58.11048,21.64992 27.94502,12.29293 20.30899,8.35964 47.88632,22.87137 2.80742,1.47732 5.62423,2.9518 8.30422,4.64935 24.4852,15.50934 47.67965,32.93761 69.74198,51.7277 9.02452,8.15651 18.24759,16.09857 27.07358,24.46951 48.29136,45.80157 90.98369,97.12354 134.51114,147.33315 18.57369,22.69363 34.70112,42.15717 52.79572,65.22441 21.87684,27.88889 42.82197,56.5079 64.96109,84.19144 10.89488,11.88236 8.85098,11.34559 29.07141,20.07615 0.78998,0.34109 1.54455,-1.11922 1.66707,-1.97092 0.20385,-1.41716 -0.49502,-2.82066 -0.77585,-4.2246 -1.62996,-8.14842 -1.25727,-6.15265 -3.63362,-14.85411 -3.36297,-11.18317 -6.21271,-22.54846 -9.74336,-33.67669 -1.21724,-3.83658 -2.77671,-7.55915 -3.98726,-11.39784 -1.17317,-3.72015 -2.10689,-7.51162 -3.16033,-11.26743 -1.14009,-3.50782 -2.28017,-7.01565 -3.42026,-10.52347 -3.18704,-10.06553 -3.62662,-12.51291 -8.05018,-22.18575 -2.09898,-4.58976 -4.51615,-9.0274 -6.72955,-13.56309 -10.31091,-21.12901 -20.66918,-42.2337 -32.39864,-62.63211 -28.74637,-49.54511 -56.55118,-100.25846 -96.03071,-142.3386 -10.32851,-11.19091 -17.26962,-19.05425 -27.94509,-29.45335 -4.41872,-4.30433 -9.03986,-8.39599 -13.53323,-12.62234 -13.71055,-12.89578 -27.31962,-25.9511 -43.10849,-36.36999 -5.42195,-4.00546 -10.69841,-8.21573 -16.26585,-12.01637 -5.47272,-3.73597 -11.14541,-7.17461 -16.83123,-10.57749 -26.94019,-16.12333 -54.10238,-31.63478 -84.06532,-41.49551 -19.47741,-6.93488 -39.28848,-14.18518 -60.29928,-13.74116 z" />
    <path
       style="display:inline;fill:url(#linearGradient7);fill-opacity:1;stroke:#000000;stroke-width:19.1;stroke-linecap:round;stroke-linejoin:bevel;stroke-opacity:1;paint-order:stroke fill markers"
       d="M 884.00372,908.82964 C 832.19241,841.64023 796.2697,797.8444 744.15786,738.33393 664.62055,647.50426 608.74433,598.30109 541.5215,559.89756 c -8.97394,-5.12669 -16.78126,-10.15217 -17.34959,-11.16772 -2.82808,-5.0535 66.34081,-35.28429 77.84262,-34.02171 10.52273,1.15511 51.16485,27.99684 82.00912,54.1622 17.35893,14.72569 56.43139,54.30219 72.22113,73.15279 22.40112,26.74361 43.02708,58.04907 75.52004,114.62201 17.37482,30.25103 43.5217,81.74903 49.29861,97.09685 4.2325,11.2447 25.5129,81.70166 24.87066,82.3439 -0.28335,0.28336 -10.15202,-11.98195 -21.93037,-27.25624 z"
       id="path5" />
    <path
       style="fill:#4b240c;fill-opacity:1;stroke-width:19.1;stroke-linecap:round;stroke-linejoin:bevel;paint-order:stroke fill markers"
       id="path3"
       d="m 493.99445,547.68369 c 0.0661,0.0105 0.1347,0.0128 0.1981,0.0331 0.0872,0.0274 0.33756,0.13429 0.25,0.10786 -0.74093,-0.2241 -1.4628,-0.50062 -2.21187,-0.70121 -0.22906,-0.0613 0.42998,0.18859 0.64556,0.28179 1.5595,0.67417 0.97603,0.42527 2.71904,1.13233 2.97528,1.24663 5.98438,2.49028 8.696,4.17785 0.36478,0.22701 0.71205,0.47632 1.06808,0.7145 0.79871,0.60936 0.65766,0.46321 1.27858,1.05559 0.14693,0.14016 0.47464,0.41552 0.53503,0.63087 -0.0126,0.0788 -0.0455,0.15069 -0.0481,0.23142 -0.0287,0.90166 1.79161,0.79328 2.72409,1.109 0.0307,-0.0655 0.0826,-0.12597 0.0923,-0.19668 0.0376,-0.27036 -0.27515,-0.4455 -0.45977,-0.59478 -0.50113,-0.40517 -0.33856,-0.27523 -0.9003,-0.6882 -1.01702,-0.71858 -1.95431,-1.52233 -2.92911,-2.28581 -0.30597,-0.23963 -1.57367,-1.20321 -1.87349,-1.43149 -1.15614,-0.89228 -2.405,-1.67668 -3.65024,-2.46121 -0.9748,-0.61414 -1.94278,-1.23067 -2.95067,-1.79907 -1.30112,-0.77667 -2.34076,-1.04255 -3.98442,-1.52185 -0.87871,-0.25623 1.79156,0.45545 2.60554,0.85004 0.12491,0.0605 -0.0453,0.25338 -0.068,0.38007 0.67809,0.1663 1.35886,0.3181 2.02641,0.51958 0.44777,0.13516 0.88763,0.29135 1.33613,0.42452 0.33429,0.0993 -0.66225,-0.21515 -0.99338,-0.32273 2.98388,0.92802 5.80407,2.21096 8.57832,3.55897 1.20588,0.55574 2.34079,1.2118 3.39729,1.97517 0.17775,0.11725 0.33354,0.2576 0.49698,0.38982 0.0944,0.0763 0.15268,0.11468 0.15572,0.11197 0.0231,-0.0207 0.007,-0.0585 0.0101,-0.0877 -0.0259,-0.0238 -0.0445,-0.0566 -0.0776,-0.071 -0.0544,-0.0239 -0.11774,-0.0247 -0.17572,-0.0401 -0.0862,-0.0228 -0.1709,-0.0495 -0.2564,-0.0742 -0.11675,-0.0337 -0.46652,-0.13614 -0.3503,-0.10096 2.42592,0.73365 2.71577,1.04365 1.41069,0.14536 -0.31553,-0.25873 -0.63694,-0.51173 -0.94661,-0.7762 -1.67348,-1.42935 -1.0449,-0.94757 -2.73627,-2.4454 -1.30566,-1.15626 -2.65463,-2.26348 -4.03269,-3.34765 -0.55722,-0.40075 -1.33112,-0.97774 -1.94022,-1.34544 -0.34613,-0.20894 -1.0416,-0.57354 -1.46148,-0.71774 -2.89179,-0.99303 -2.03836,-0.84844 -3.45039,-1.05268 0.0301,0.11284 -0.3287,-0.0643 -0.37287,0.0418 -0.47648,1.14494 2.42199,1.12935 2.81505,1.24531 0.12558,0.0371 0.26185,0.0317 0.39194,0.0526 0.20885,0.0327 0.4166,0.0708 0.62489,0.10639 1.61508,0.28322 3.16941,0.77189 4.72759,1.23713 3.9221,1.17106 -0.92811,-0.30617 2.84943,0.84985 0.40543,0.12918 1.61686,0.52873 1.2163,0.38755 -0.50325,-0.17737 -1.00439,-0.36504 -1.5246,-0.49621 -0.35187,-0.0887 0.68202,0.23766 1.01758,0.36837 1.10143,0.42901 2.12411,0.97704 3.1561,1.52569 1.18261,0.65691 2.31281,1.40421 3.31473,2.27555 0.0106,-0.0782 0.37177,0.37742 0.38449,0.30972 0.0123,-0.0665 0.0309,-0.14331 -0.005,-0.20239 -0.0367,-0.0602 -0.26062,-0.13645 -0.18846,-0.11534 0.78047,0.22832 1.54747,0.49284 2.32121,0.73928 -0.78123,-0.40247 -1.2585,-1.05679 -1.74819,-1.72756 -0.33932,-0.46478 -0.64954,-0.94653 -0.96614,-1.42429 -1.33685,-2.06215 -0.66281,-1.03726 -2.02192,-3.07484 -0.83946,-1.22938 -1.71523,-2.4422 -2.78431,-3.5204 -0.84286,-0.85005 -1.79643,-1.58533 -2.7606,-2.31672 -0.61407,-0.44867 -1.19663,-0.93053 -1.77636,-1.41466 -0.0983,-0.0821 -0.19553,-0.1652 -0.2943,-0.24681 -0.0536,-0.0443 -0.0924,-0.11526 -0.16285,-0.13093 -0.90827,-0.20198 -1.83146,-0.34411 -2.7472,-0.51617 0.11247,0.0515 0.22875,0.0964 0.33743,0.15413 0.85729,0.45524 1.65618,1.00447 2.48223,1.50286 1.7156,1.03516 1.87509,1.11142 3.7054,2.1589 0.70016,0.38232 1.39461,0.77343 2.10052,1.14699 1.84927,0.97865 2.1069,1.06461 3.90479,1.96683 0.85708,0.43011 1.65162,0.83147 2.46874,1.313 0.29431,0.17343 0.57712,0.3624 0.86566,0.5436 1.17387,0.79115 2.17539,1.77473 3.10307,2.79494 0.0354,0.0464 0.0576,0.1036 0.1059,0.13908 0.0167,0.0122 0.0104,-0.0396 0.004,-0.0582 -0.0242,-0.0713 -0.17359,-0.22624 -0.094,-0.20703 0.80551,0.19455 1.56488,0.52268 2.3585,0.75393 0.12922,0.0377 -0.24473,-0.10738 -0.36041,-0.17171 -0.17325,-0.0964 -0.33675,-0.2064 -0.50513,-0.30962 -0.21022,-0.18123 -0.43328,-0.35099 -0.63067,-0.5437 -0.98058,-0.95725 -1.75094,-2.07452 -2.52142,-3.17174 -0.94851,-1.35073 -1.01079,-1.46992 -1.90792,-2.8398 -1.51527,-2.31767 -3.08328,-4.60626 -4.65411,-6.8931 -0.17186,-0.25247 -0.34373,-0.50495 -0.51559,-0.75743 0,0 -2.66404,-0.63204 -2.66404,-0.63204 v 0 c 0.17989,0.25425 0.35977,0.50851 0.53964,0.76277 1.59361,2.28681 3.17437,4.58096 4.71033,6.90019 0.8796,1.34657 0.97704,1.5126 1.89143,2.84463 0.90787,1.32254 1.80412,2.67604 3.02649,3.78545 1.2926,0.8804 1.53672,0.91076 3.72486,1.49215 0.17447,0.0464 0.35522,-0.17763 0.3374,-0.30933 -0.009,-0.0668 -0.0787,-0.11427 -0.11793,-0.17142 -0.38154,-0.41694 -0.78634,-0.81831 -1.19209,-1.21603 -0.34176,-0.33501 -0.88852,-0.85679 -1.26121,-1.15516 -0.22214,-0.17785 -0.46302,-0.3355 -0.69453,-0.50324 -0.29399,-0.18717 -0.58117,-0.38345 -0.88194,-0.56154 -0.84263,-0.4989 -1.65508,-0.90125 -2.54383,-1.34104 -1.81073,-0.89602 -2.0893,-0.98812 -3.94138,-1.96267 -0.70411,-0.37048 -1.39578,-0.76005 -2.09366,-1.14007 -0.6594,-0.37989 -1.32378,-0.7528 -1.97822,-1.13968 -1.46099,-0.86375 -2.88225,-1.78297 -4.31259,-2.68656 -0.93601,-0.17881 -1.86596,-0.38612 -2.80803,-0.53645 -0.0741,-0.0122 0.12654,0.0747 0.18485,0.11785 0.10736,0.0796 0.20796,0.1664 0.31145,0.2501 0.60102,0.48601 1.19518,0.97942 1.82369,1.43668 0.97679,0.7197 1.94609,1.44222 2.80525,2.28055 1.09138,1.06492 1.98554,2.27022 2.84163,3.49454 1.50963,2.25232 0.54246,0.7855 2.01003,3.07087 0.3063,0.47696 0.60514,0.95797 0.92235,1.42902 0.46098,0.68451 0.89006,1.35921 1.61196,1.83806 0.97471,0.33014 1.94103,0.68141 2.92412,0.99045 0.25775,0.081 0.34667,-0.004 0.45143,-0.22296 0.0165,-0.0345 -0.002,-0.0784 -0.0241,-0.11048 -0.0464,-0.0692 -0.33397,-0.27649 -0.3644,-0.29965 -0.12581,-0.11099 -0.51486,-0.45693 -0.63264,-0.54854 -0.1425,-0.11081 -0.29358,-0.21224 -0.44157,-0.31698 -0.74404,-0.52648 -1.49046,-1.05368 -2.30892,-1.48436 -0.55752,-0.30031 -1.59738,-0.86961 -2.17437,-1.14422 -0.56203,-0.26749 -1.37954,-0.5924 -1.97172,-0.7919 -2.23974,-0.7545 -2.94541,-0.97078 -4.76166,-1.54078 -3.23563,-0.98002 0.52005,0.15311 -2.84633,-0.8482 -1.58707,-0.47207 -3.17489,-0.95379 -4.81832,-1.24307 -0.21609,-0.0377 -0.43224,-0.0749 -0.64825,-0.11289 -0.13358,-0.0236 -0.52655,-0.11824 -0.40047,-0.0719 0.79816,0.29389 1.66416,0.44576 2.42248,0.8163 0.10494,0.0513 -0.14777,0.17375 -0.18877,0.27519 -0.0351,0.0866 0.61911,-0.22535 0.30377,0.0291 0.9887,0.21289 0.96722,0.22185 -1.76008,-0.6394 -0.23324,-0.0737 0.45972,0.1651 0.6811,0.26435 1.0283,0.46097 1.92181,1.10672 2.81985,1.74602 1.39759,1.07455 2.76307,2.17333 4.073,3.33636 0.90233,0.80113 1.76637,1.63714 2.66619,2.44058 0.29773,0.26582 0.60518,0.52254 0.90777,0.78382 1.47586,1.1823 0.47248,0.50268 3.75563,1.62879 0.18453,0.0634 0.65498,0.1875 0.86483,0.11753 0.0666,-0.0221 0.11491,-0.0755 0.17237,-0.11316 0.0295,-0.0642 0.077,-0.12378 0.0887,-0.1925 0.0225,-0.13181 -0.19816,-0.22375 -0.2778,-0.28806 -0.5784,-0.46705 0.39798,0.25949 -0.3793,-0.30769 -0.38311,-0.27702 -0.76623,-0.55579 -1.16931,-0.80896 -0.51716,-0.32481 -0.76117,-0.45019 -1.33574,-0.74353 -0.32214,-0.16445 -0.64782,-0.32314 -0.97173,-0.48471 -2.78355,-1.35383 -5.60717,-2.65751 -8.59799,-3.5985 -2.48434,-0.8156 -4.95143,-1.7117 -7.51735,-2.30278 -0.69474,1.0802 -0.39347,0.35143 2.45525,1.22143 0.83482,0.25496 -1.65825,-0.53972 -2.48433,-0.81707 -0.0898,-0.0301 0.18679,0.0417 0.27509,0.0753 0.35916,0.13707 0.67194,0.32923 1.0048,0.5124 0.26922,0.14348 0.54434,0.27824 0.80766,0.43044 0.19821,0.11456 2.13064,1.3154 2.21179,1.36603 1.23757,0.77218 2.47482,1.54842 3.62067,2.43208 0.62158,0.47434 1.25021,0.94122 1.86476,1.42302 0.96515,0.75665 1.88098,1.56492 2.87847,2.28772 0.26328,0.19008 0.63118,0.44667 0.88304,0.66005 0.16178,0.13706 0.38829,0.419 0.51687,0.31074 0.0401,-0.0337 0.0465,-0.0898 0.0697,-0.13466 0.86452,0.29892 1.73404,0.58625 2.59359,0.89675 0.0208,0.007 -0.0426,0.0201 -0.0648,0.0167 -0.0146,-0.002 -0.0203,-0.0195 -0.0281,-0.0306 -0.0483,-0.0684 0.0546,-0.16521 0.0461,-0.23779 0.003,-0.0487 0.0167,-0.0979 0.009,-0.1464 -0.04,-0.27248 -0.35874,-0.50263 -0.54635,-0.68118 -0.72374,-0.68872 -0.38508,-0.38641 -1.3269,-1.10722 -0.3632,-0.24489 -0.71719,-0.5014 -1.08956,-0.73467 -2.71033,-1.69782 -5.72265,-2.94467 -8.69126,-4.21518 -1.37512,-0.55835 -1.38634,-0.54699 -2.63147,-1.10583 -1.72926,-0.77615 0.32774,-0.0262 -3.63582,-1.31218 -0.0931,-0.0301 -0.19261,-0.0437 -0.29114,-0.0504 -0.0774,-0.005 -0.15505,0.0101 -0.23257,0.0152 z" />
    <path
       style="fill:#4b240c;fill-opacity:1;stroke-width:19.1;stroke-linecap:round;stroke-linejoin:bevel;paint-order:stroke fill markers"
       id="path4"
       d="m 580.56754,504.8209 c 0.0589,0.0256 0.1229,0.0448 0.17592,0.0779 0.0731,0.0453 0.27347,0.19932 0.19971,0.15479 -0.62412,-0.37723 -1.21254,-0.79438 -1.85228,-1.15361 -0.19562,-0.10985 0.34244,0.26884 0.51458,0.40248 1.24526,0.96669 0.77824,0.60786 2.18572,1.6487 2.38914,1.81055 4.81123,3.62704 6.80253,5.74745 0.26788,0.28524 0.51169,0.58511 0.76753,0.87767 0.54864,0.72033 0.46476,0.56026 0.85122,1.22146 0.0914,0.15644 0.308,0.47361 0.29234,0.67246 -0.0385,0.064 -0.0939,0.11709 -0.12359,0.18529 -0.33148,0.76182 1.42428,1.12658 2.19837,1.63006 0.0511,-0.0481 0.12052,-0.0867 0.15361,-0.14455 0.12675,-0.22116 -0.10948,-0.44908 -0.23345,-0.62277 -0.33651,-0.47145 -0.22683,-0.31978 -0.61795,-0.8131 -0.71795,-0.86832 -1.33184,-1.78926 -1.99475,-2.68528 -0.20808,-0.28123 -1.08007,-1.42147 -1.28617,-1.69149 -0.7907,-1.05141 -1.70537,-2.03411 -2.6166,-3.016 -0.71332,-0.76864 -1.41939,-1.53761 -2.17942,-2.27555 -0.96664,-0.98922 -1.85876,-1.47711 -3.2493,-2.29873 -0.74339,-0.43925 1.53828,0.83842 2.17383,1.37941 0.0975,0.083 -0.12834,0.20473 -0.19251,0.3071 0.58427,0.31215 1.17598,0.61261 1.73843,0.95212 0.37726,0.22774 0.73996,0.47143 1.11858,0.69766 0.28222,0.16862 -0.55283,-0.34984 -0.82924,-0.52477 2.50482,1.54097 4.73524,3.34353 6.9003,5.19005 0.95128,0.77688 1.80167,1.62147 2.54177,2.53792 0.12829,0.14465 0.22806,0.30349 0.33778,0.45731 0.0634,0.0888 0.10548,0.13616 0.10927,0.13461 0.0287,-0.0118 0.0264,-0.0481 0.0391,-0.0722 -0.0164,-0.0268 -0.0229,-0.0594 -0.0494,-0.0801 -0.0433,-0.034 -0.10286,-0.0507 -0.1524,-0.0784 -0.0737,-0.0411 -0.14469,-0.0852 -0.2171,-0.12771 -0.0989,-0.0581 -0.39464,-0.23329 -0.29675,-0.17409 2.04347,1.23504 2.21257,1.57224 1.28324,0.47829 -0.21066,-0.29993 -0.42881,-0.59643 -0.632,-0.89979 -1.098,-1.63942 -0.66697,-1.07063 -1.75875,-2.77295 -0.84279,-1.31413 -1.74305,-2.59731 -2.67856,-3.86811 -0.39098,-0.48177 -0.9271,-1.16826 -1.37824,-1.63487 -0.25636,-0.26514 -0.79012,-0.75078 -1.13799,-0.97923 -2.3959,-1.57328 -1.63869,-1.2356 -2.90333,-1.76446 -0.01,0.10381 -0.28874,-0.13736 -0.36625,-0.058 -0.8365,0.85687 1.90618,1.57155 2.23826,1.76918 0.10607,0.0632 0.23659,0.0928 0.35242,0.14327 0.1862,0.0804 0.36954,0.16507 0.55425,0.24769 1.42974,0.64722 2.73276,1.4544 4.04731,2.24256 3.30886,1.98391 -0.7732,-0.49424 2.40423,1.44053 0.33929,0.21201 1.34853,0.85705 1.01789,0.63604 -0.41542,-0.27769 -0.82536,-0.56362 -1.27238,-0.80615 -0.3024,-0.16401 0.56389,0.37399 0.83669,0.56976 0.89541,0.64254 1.67627,1.36683 2.46571,2.09397 0.89515,0.85732 1.71029,1.77856 2.36241,2.77338 0.0364,-0.064 0.2237,0.41528 0.25857,0.36073 0.034,-0.0536 0.0776,-0.11445 0.0636,-0.17387 -0.0143,-0.0605 -0.20007,-0.18184 -0.13906,-0.14572 0.66004,0.39077 1.29512,0.80902 1.94269,1.21355 -0.60196,-0.53949 -0.83183,-1.21744 -1.06789,-1.91254 -0.16357,-0.48164 -0.29393,-0.97045 -0.43167,-1.45745 -0.56644,-2.09461 -0.27583,-1.05117 -0.8716,-3.13041 -0.37782,-1.25939 -0.79552,-2.51378 -1.44123,-3.7019 -0.50907,-0.93672 -1.16145,-1.80335 -1.82516,-2.66932 -0.42849,-0.53691 -0.81602,-1.09421 -1.20012,-1.65274 -0.0651,-0.0947 -0.12889,-0.19001 -0.19463,-0.28442 -0.0356,-0.0512 -0.0483,-0.12151 -0.1096,-0.15259 -0.78962,-0.40038 -1.61354,-0.75348 -2.42032,-1.13023 0.0888,0.0721 0.1835,0.13967 0.26665,0.21621 0.65598,0.60359 1.22509,1.27269 1.83699,1.90525 1.27085,1.31379 1.39573,1.4189 2.77075,2.77201 0.5322,0.50194 1.05604,1.00994 1.59663,1.50586 1.41615,1.29916 1.63045,1.43719 3.02389,2.65827 0.66426,0.58211 1.27917,1.12399 1.88835,1.73992 0.21941,0.22184 0.42271,0.45406 0.63405,0.68107 0.84158,0.96961 1.45543,2.06007 1.98717,3.16322 0.0177,0.0485 0.0194,0.10283 0.0531,0.14522 0.0116,0.0147 0.0232,-0.0312 0.0235,-0.0487 10e-4,-0.0669 -0.0876,-0.23657 -0.0189,-0.20018 0.69508,0.36825 1.30149,0.83884 1.97295,1.2354 0.10933,0.0646 -0.19488,-0.15304 -0.28242,-0.23697 -0.13109,-0.12572 -0.24836,-0.26062 -0.37254,-0.39095 -0.13737,-0.20737 -0.29072,-0.40818 -0.41209,-0.62213 -0.60296,-1.06274 -0.95336,-2.20915 -1.31065,-3.3385 -0.43984,-1.39028 -0.45842,-1.50759 -0.84328,-2.9013 -0.6487,-2.35735 -1.35703,-4.70314 -2.06862,-7.04815 -0.0771,-0.2585 -0.15417,-0.51701 -0.23125,-0.77552 0,0 -2.30267,-1.20818 -2.30267,-1.20818 v 0 c 0.0841,0.26204 0.16812,0.52407 0.25217,0.78611 0.73311,2.3507 1.45161,4.70445 2.11932,7.06831 0.37617,1.36944 0.41215,1.53553 0.82608,2.90129 0.41098,1.35603 0.80053,2.73555 1.58048,3.98879 0.92359,1.07556 1.14389,1.16277 3.01419,2.20822 0.14911,0.0834 0.39545,-0.0623 0.42308,-0.17909 0.014,-0.0593 -0.0357,-0.11721 -0.0535,-0.17582 -0.21959,-0.45144 -0.46641,-0.89545 -0.71536,-1.33658 -0.20968,-0.37156 -0.54993,-0.95393 -0.80119,-1.30202 -0.14977,-0.20748 -0.32404,-0.40243 -0.48606,-0.60366 -0.21447,-0.23348 -0.41944,-0.47301 -0.64338,-0.70046 -0.6274,-0.63714 -1.25889,-1.18437 -1.9498,-1.7827 -1.40766,-1.21901 -1.63966,-1.36753 -3.05986,-2.66391 -0.53992,-0.49284 -1.06165,-0.99883 -1.59247,-1.49823 -0.49453,-0.48964 -0.99611,-0.97455 -1.48359,-1.4689 -1.08824,-1.10365 -2.12023,-2.24463 -3.16608,-3.37456 -0.82364,-0.3876 -1.63194,-0.79799 -2.47092,-1.16282 -0.0659,-0.029 0.0943,0.0955 0.1348,0.14694 0.0745,0.0949 0.14023,0.19416 0.20972,0.29154 0.40356,0.56548 0.79815,1.13555 1.23738,1.6834 0.67957,0.85918 1.35112,1.71887 1.87954,2.6497 0.67126,1.18239 1.10887,2.43498 1.5041,3.69424 0.66543,2.3002 0.24716,0.80621 0.86172,3.12402 0.12827,0.48375 0.24813,0.96906 0.38871,1.4505 0.20429,0.69961 0.38177,1.38284 0.90192,1.97257 0.80911,0.52639 1.60316,1.0687 2.42731,1.5792 0.21608,0.13381 0.32863,0.0839 0.50161,-0.0768 0.0272,-0.0252 0.0245,-0.0673 0.0146,-0.10027 -0.0205,-0.0707 -0.22209,-0.3197 -0.243,-0.3471 -0.0814,-0.12626 -0.33202,-0.51904 -0.41232,-0.62675 -0.0972,-0.1303 -0.20562,-0.25476 -0.31003,-0.38126 -0.52498,-0.63592 -1.05196,-1.27305 -1.67957,-1.84595 -0.42516,-0.39617 -1.21506,-1.14291 -1.6673,-1.52204 -0.44051,-0.3693 -1.10291,-0.85175 -1.59485,-1.17065 -1.86059,-1.20606 -2.45405,-1.56776 -3.97697,-2.51009 -2.72503,-1.64855 0.43946,0.2612 -2.40186,-1.43834 -1.33953,-0.80124 -2.67652,-1.61092 -4.13099,-2.27041 -0.19136,-0.0864 -0.38295,-0.17243 -0.57412,-0.2591 -0.11819,-0.0537 -0.45738,-0.2331 -0.35396,-0.16187 0.6546,0.45113 1.42122,0.79816 2.01233,1.30466 0.0818,0.0701 -0.19822,0.11109 -0.27118,0.1873 -0.0623,0.065 0.66078,-0.0367 0.27707,0.1011 0.8619,0.4299 0.83859,0.43214 -1.44644,-0.98743 -0.1954,-0.12142 0.37845,0.25629 0.55402,0.39654 0.81555,0.65144 1.44144,1.42662 2.07377,2.19744 0.95721,1.26753 1.8759,2.54764 2.72045,3.86861 0.58175,0.90993 1.11557,1.83998 1.69419,2.75125 0.19145,0.3015 0.39516,0.59768 0.59273,0.89653 0.99476,1.37907 0.27654,0.54741 2.99713,2.3325 0.1529,0.10037 0.5553,0.32441 0.77711,0.31745 0.0703,-0.002 0.13401,-0.0356 0.20099,-0.0532 0.0495,-0.0473 0.11455,-0.0862 0.14878,-0.1419 0.0657,-0.10678 -0.11162,-0.24061 -0.16512,-0.31546 -0.38861,-0.54363 0.28827,0.32128 -0.25436,-0.35771 -0.26831,-0.33249 -0.53604,-0.66649 -0.83126,-0.98366 -0.37878,-0.40692 -0.56691,-0.57514 -1.01053,-0.96964 -0.24873,-0.22118 -0.50275,-0.43833 -0.75412,-0.65748 -2.17187,-1.85383 -4.39853,-3.67494 -6.90553,-5.2287 -2.07098,-1.31962 -4.0985,-2.70355 -6.32232,-3.85215 -1.02079,0.74682 -0.49025,0.20091 1.90651,1.65843 0.70237,0.42714 -1.38392,-0.87682 -2.07048,-1.32085 -0.0747,-0.0482 0.16234,0.0825 0.23438,0.13333 0.29293,0.20712 0.52347,0.44957 0.776,0.6894 0.20583,0.19 0.42017,0.37404 0.61748,0.56998 0.14853,0.1475 1.56822,1.65706 1.62777,1.72062 0.90814,0.96944 1.81462,1.94226 2.5985,2.98374 0.42693,0.56069 0.86302,1.11678 1.28079,1.68207 0.65611,0.88776 1.2482,1.80717 1.94627,2.67418 0.18449,0.22825 0.44533,0.5395 0.61117,0.78475 0.10652,0.15754 0.22527,0.4549 0.38325,0.39486 0.0493,-0.0187 0.0743,-0.0649 0.11128,-0.0974 0.71558,0.47209 1.4398,0.93554 2.14678,1.41627 0.0172,0.0115 -0.047,0.007 -0.0668,-0.002 -0.0132,-0.005 -0.0126,-0.0217 -0.0162,-0.0332 -0.0226,-0.0705 0.10732,-0.1272 0.12383,-0.19123 0.0193,-0.0408 0.0488,-0.0793 0.058,-0.12258 0.0542,-0.24246 -0.16913,-0.51882 -0.28605,-0.71822 -0.45104,-0.76919 -0.23324,-0.42629 -0.87941,-1.27763 -0.26035,-0.30008 -0.50808,-0.60778 -0.78102,-0.90026 -1.98661,-2.12882 -4.41066,-3.94886 -6.78544,-5.7781 -1.11024,-0.8216 -1.12467,-0.81473 -2.11197,-1.60411 -1.37118,-1.09631 0.31839,0.0599 -2.99086,-2.03235 -0.0777,-0.049 -0.16716,-0.0856 -0.25796,-0.11609 -0.0713,-0.0241 -0.14983,-0.0303 -0.22478,-0.0455 z" />
  </g>
</svg>
